<?xml version="1.0" encoding="UTF-8"?>
<svg version="1.1" xmlns="http://www.w3.org/2000/svg" viewBox="0 0 3540 1118" width="120" height="48">
<path d="M0 0 C0.77279297 -0.00979385 1.54558594 -0.01958771 2.34179688 -0.02967834 C19.16113485 -0.19898003 35.30959901 -0.09673609 51.6796875 4.23828125 C52.50984375 4.44727051 53.34 4.65625977 54.1953125 4.87158203 C78.57677549 11.11185295 101.82700961 22.43677471 120.6796875 39.23828125 C121.51628906 39.96660156 122.35289062 40.69492187 123.21484375 41.4453125 C133.53479841 50.55303137 142.56431443 60.12562272 150.6796875 71.23828125 C151.42025391 72.25220947 151.42025391 72.25220947 152.17578125 73.28662109 C155.47337802 77.81464907 158.74579105 82.36050599 162.01074219 86.91210938 C164.70736382 90.67065398 167.41091814 94.42417885 170.1171875 98.17578125 C170.65061768 98.91530029 171.18404785 99.65481934 171.73364258 100.41674805 C175.68281833 105.88169733 179.67344166 111.31507087 183.6796875 116.73828125 C189.86979869 125.11776583 195.98443059 133.54935488 202.07080078 142.00439453 C204.76980868 145.75187894 207.47500244 149.49489326 210.1796875 153.23828125 C213.42100203 157.72438504 216.66110704 162.21132956 219.89453125 166.703125 C225.44773374 174.41291098 231.03405955 182.09585756 236.6796875 189.73828125 C243.95911372 199.59235946 251.12799074 209.52402459 258.28417969 219.46777344 C265.01089117 228.81156416 271.77899402 238.12150569 278.63354492 247.37207031 C281.36812534 251.06963989 284.07705733 254.77947896 286.71484375 258.546875 C287.17673096 259.20526367 287.63861816 259.86365234 288.11450195 260.54199219 C288.96929425 261.76634291 289.81842839 262.99467036 290.66088867 264.22753906 C291.6186503 265.59961912 292.6427713 266.92499689 293.6796875 268.23828125 C294.3396875 268.23828125 294.9996875 268.23828125 295.6796875 268.23828125 C297.07767942 266.72755041 297.07767942 266.72755041 298.48046875 264.71484375 C299.03863281 263.95042969 299.59679688 263.18601562 300.171875 262.3984375 C300.77257813 261.56183594 301.37328125 260.72523438 301.9921875 259.86328125 C302.92998047 258.57357422 302.92998047 258.57357422 303.88671875 257.2578125 C305.82449094 254.58946894 307.75303246 251.91465964 309.6796875 249.23828125 C310.78752392 247.70425626 311.89558435 246.17039302 313.00390625 244.63671875 C314.59601835 242.43251826 316.18728199 240.22773167 317.77587891 238.02099609 C321.76728044 232.48094529 325.80847421 226.97915856 329.8671875 221.48828125 C334.68373991 214.96968333 339.43991826 208.41379646 344.13671875 201.80859375 C352.12814525 190.57312282 360.25391145 179.43683697 368.44604492 168.34716797 C374.58841958 160.02392245 380.63735669 151.6342893 386.6796875 143.23828125 C393.36194825 133.95307048 400.06857757 124.68878426 406.8671875 115.48828125 C412.09888581 108.40758348 417.24908816 101.27526322 422.35205078 94.1015625 C433.45912553 78.51325899 444.46708317 63.13003813 457.6796875 49.23828125 C458.25976562 48.60535156 458.83984375 47.97242188 459.4375 47.3203125 C484.82971733 20.46070572 525.97591983 2.08191477 562.68049622 0.13198853 C564.74970616 0.07531771 566.81677708 0.04801257 568.88671875 0.03515625 C569.64556366 0.02814194 570.40440857 0.02112762 571.18624878 0.01390076 C573.62162272 -0.00350744 576.05675362 -0.00995136 578.4921875 -0.01171875 C579.3236026 -0.01239349 580.1550177 -0.01306824 581.0116272 -0.01376343 C593.14369543 0.00190332 604.84004309 0.3556839 616.6796875 3.23828125 C617.40494629 3.40457031 618.13020508 3.57085937 618.87744141 3.7421875 C647.67888926 10.4648077 674.2259302 24.96330183 695.6796875 45.23828125 C697.07111859 46.43093647 698.46677544 47.61868438 699.8671875 48.80078125 C703.87410568 52.31183331 707.31730905 56.11109951 710.6796875 60.23828125 C711.453125 61.18574219 712.2265625 62.13320313 713.0234375 63.109375 C728.62448812 82.59698177 739.52980453 105.07764439 745.6796875 129.23828125 C745.99550781 130.45773438 746.31132813 131.6771875 746.63671875 132.93359375 C756.86128674 176.35023223 748.78980558 223.25170368 725.6796875 261.23828125 C721.26975229 268.08657141 716.49854538 274.67428531 711.6796875 281.23828125 C711.09106934 282.04297852 710.50245117 282.84767578 709.89599609 283.67675781 C706.98218128 287.65577765 704.05473796 291.62441504 701.1171875 295.5859375 C697.74945489 300.13294669 694.42593597 304.71072816 691.1171875 309.30078125 C690.58399902 310.04030029 690.05081055 310.77981934 689.50146484 311.54174805 C687.89346916 313.77339649 686.28639766 316.00570713 684.6796875 318.23828125 C677.99742675 327.52349202 671.29079743 336.78777824 664.4921875 345.98828125 C659.67574534 352.50696204 654.91945815 359.06276405 650.22265625 365.66796875 C642.23122975 376.90343968 634.10546355 388.03972553 625.91333008 399.12939453 C619.77095542 407.45264005 613.72201831 415.8422732 607.6796875 424.23828125 C600.47905542 434.24378523 593.23717964 444.21516603 585.91259766 454.13037109 C580.31536576 461.71496965 574.79560123 469.35416455 569.28857422 477.00439453 C566.04822555 481.50351294 562.79941048 485.99652244 559.55224609 490.49072266 C556.85370728 494.22622625 554.15710797 497.96309605 551.46484375 501.703125 C545.33212071 510.21748806 539.14735961 518.69044327 532.91259766 527.13037109 C526.77049116 535.45330874 520.72178067 543.8426034 514.6796875 552.23828125 C507.47905542 562.24378523 500.23717964 572.21516603 492.91259766 582.13037109 C487.31536576 589.71496965 481.79560123 597.35416455 476.28857422 605.00439453 C473.04822555 609.50351294 469.79941048 613.99652244 466.55224609 618.49072266 C463.85370728 622.22622625 461.15710797 625.96309605 458.46484375 629.703125 C452.33212071 638.21748806 446.14735961 646.69044327 439.91259766 655.13037109 C433.77049116 663.45330874 427.72178067 671.8426034 421.6796875 680.23828125 C414.47905542 690.24378523 407.23717964 700.21516603 399.91259766 710.13037109 C394.31536576 717.71496965 388.79560123 725.35416455 383.28857422 733.00439453 C380.05071335 737.50005871 376.80528058 741.99026648 373.55883789 746.47973633 C370.81671776 750.2731195 368.08164389 754.07124654 365.359375 757.87890625 C362.15858496 762.35104916 358.92891066 766.80122563 355.6796875 771.23828125 C354.96449951 772.22151367 354.96449951 772.22151367 354.23486328 773.22460938 C341.66247466 790.38677795 326.52767233 801.462746 305.4296875 805.92578125 C284.5967526 807.66185916 267.11477889 803.26838633 250.6796875 790.23828125 C249.6278125 789.45453125 248.5759375 788.67078125 247.4921875 787.86328125 C238.79775815 779.74848053 232.27945496 769.24616099 225.38085938 759.61279297 C222.67552874 755.836667 219.96018624 752.0677958 217.2421875 748.30078125 C216.44228394 747.19186523 216.44228394 747.19186523 215.6262207 746.06054688 C211.67693834 740.59531263 207.68610752 735.16172741 203.6796875 729.73828125 C197.48957631 721.35879667 191.37494441 712.92720762 185.28857422 704.47216797 C182.58956632 700.72468356 179.88437256 696.98166924 177.1796875 693.23828125 C173.93837297 688.75217746 170.69826796 684.26523294 167.46484375 679.7734375 C161.91164126 672.06365152 156.32531545 664.38070494 150.6796875 656.73828125 C143.40026128 646.88420304 136.23138426 636.95253791 129.07519531 627.00878906 C122.9873 618.55235089 116.87100009 610.11939216 110.6796875 601.73828125 C104.48957631 593.35879667 98.37494441 584.92720762 92.28857422 576.47216797 C89.58956632 572.72468356 86.88437256 568.98166924 84.1796875 565.23828125 C80.93837297 560.75217746 77.69826796 556.26523294 74.46484375 551.7734375 C68.91164126 544.06365152 63.32531545 536.38070494 57.6796875 528.73828125 C50.40026128 518.88420304 43.23138426 508.95253791 36.07519531 499.00878906 C29.9873 490.55235089 23.87100009 482.11939216 17.6796875 473.73828125 C11.48957631 465.35879667 5.37494441 456.92720762 -0.71142578 448.47216797 C-3.41043368 444.72468356 -6.11562744 440.98166924 -8.8203125 437.23828125 C-12.06162703 432.75217746 -15.30173204 428.26523294 -18.53515625 423.7734375 C-24.08835874 416.06365152 -29.67468455 408.38070494 -35.3203125 400.73828125 C-42.59973872 390.88420304 -49.76861574 380.95253791 -56.92480469 371.00878906 C-63.0127 362.55235089 -69.12899991 354.11939216 -75.3203125 345.73828125 C-81.51042369 337.35879667 -87.62505559 328.92720762 -93.71142578 320.47216797 C-96.41043378 316.72468341 -99.11570134 312.9817228 -101.8203125 309.23828125 C-102.90367554 307.73830271 -103.98700888 306.23830271 -105.0703125 304.73828125 C-105.8746875 303.62453125 -105.8746875 303.62453125 -106.6953125 302.48828125 C-108.3203125 300.23828125 -109.9453125 297.98828125 -111.5703125 295.73828125 C-112.37505005 294.62453125 -112.37505005 294.62453125 -113.19604492 293.48828125 C-114.27822124 291.98920761 -115.35911555 290.48920765 -116.4387207 288.98828125 C-119.15495352 285.21544001 -121.89210443 281.46170151 -124.67578125 277.73828125 C-153.70133467 238.70581468 -166.26854098 192.65383334 -159.3203125 144.23828125 C-154.26071915 110.40097389 -138.74422723 78.16720926 -114.75634766 53.70947266 C-113.24127306 52.15730681 -111.75566436 50.57986589 -110.26953125 49 C-82.48195073 19.87165908 -40.41248824 0.42529645 0 0 Z M-23.1328125 138.890625 C-32.45144583 148.89151542 -36.47316882 160.61708489 -36.3203125 174.23828125 C-35.30767701 184.98779645 -30.84124775 194.24636541 -24.3828125 202.73828125 C-23.21582829 204.31226462 -22.04917074 205.88649022 -20.8828125 207.4609375 C-20.28984375 208.25387207 -19.696875 209.04680664 -19.0859375 209.86376953 C-16.30631745 213.60195877 -13.59857597 217.39110459 -10.8828125 221.17578125 C-6.40117475 227.39248692 -1.87390829 233.57412933 2.6796875 239.73828125 C8.86979869 248.11776583 14.98443059 256.54935488 21.07080078 265.00439453 C23.76980868 268.75187894 26.47500244 272.49489326 29.1796875 276.23828125 C32.42100203 280.72438504 35.66110704 285.21132956 38.89453125 289.703125 C44.44773374 297.41291098 50.03405955 305.09585756 55.6796875 312.73828125 C62.95911372 322.59235946 70.12799074 332.52402459 77.28417969 342.46777344 C83.372075 350.92421161 89.48837491 359.35717034 95.6796875 367.73828125 C101.86979869 376.11776583 107.98443059 384.54935488 114.07080078 393.00439453 C116.76980868 396.75187894 119.47500244 400.49489326 122.1796875 404.23828125 C125.42100203 408.72438504 128.66110704 413.21132956 131.89453125 417.703125 C137.44773374 425.41291098 143.03405955 433.09585756 148.6796875 440.73828125 C155.95911372 450.59235946 163.12799074 460.52402459 170.28417969 470.46777344 C176.372075 478.92421161 182.48837491 487.35717034 188.6796875 495.73828125 C194.86979869 504.11776583 200.98443059 512.54935488 207.07080078 521.00439453 C209.76980868 524.75187894 212.47500244 528.49489326 215.1796875 532.23828125 C218.42100203 536.72438504 221.66110704 541.21132956 224.89453125 545.703125 C230.44773374 553.41291098 236.03405955 561.09585756 241.6796875 568.73828125 C248.95911372 578.59235946 256.12799074 588.52402459 263.28417969 598.46777344 C270.10875102 607.94749714 276.97637396 617.392603 283.92358398 626.78295898 C287.21822937 631.23888341 290.4716756 635.71953314 293.6796875 640.23828125 C296.73735092 638.91736416 298.36989261 637.70623706 300.23828125 634.95703125 C300.69960449 634.28945801 301.16092773 633.62188477 301.63623047 632.93408203 C302.3693042 631.84716064 302.3693042 631.84716064 303.1171875 630.73828125 C304.19041657 629.18291039 305.26466877 627.6282451 306.33984375 626.07421875 C307.16766357 624.87104004 307.16766357 624.87104004 308.01220703 623.64355469 C310.6437132 619.847713 313.34547569 616.10388533 316.0546875 612.36328125 C316.85990845 611.24953125 316.85990845 611.24953125 317.68139648 610.11328125 C322.23251439 603.83010705 326.83686864 597.58671242 331.4465332 591.34643555 C337.58885146 583.02351339 343.63752862 574.6340504 349.6796875 566.23828125 C356.88031958 556.23277727 364.12219536 546.26139647 371.44677734 536.34619141 C377.58888384 528.02325376 383.63759433 519.6339591 389.6796875 511.23828125 C396.36194825 501.95307048 403.06857757 492.68878426 409.8671875 483.48828125 C414.68362966 476.96960046 419.43991685 470.41379845 424.13671875 463.80859375 C432.12814525 452.57312282 440.25391145 441.43683697 448.44604492 430.34716797 C454.58841958 422.02392245 460.63735669 413.6342893 466.6796875 405.23828125 C473.88031958 395.23277727 481.12219536 385.26139647 488.44677734 375.34619141 C494.04400924 367.76159285 499.56377377 360.12239795 505.07080078 352.47216797 C508.31114945 347.97304956 511.55996452 343.48004006 514.80712891 338.98583984 C517.50566772 335.25033625 520.20226703 331.51346645 522.89453125 327.7734375 C529.02725429 319.25907444 535.21201539 310.78611923 541.44677734 302.34619141 C547.58888384 294.02325376 553.63759433 285.6339591 559.6796875 277.23828125 C566.88031958 267.23277727 574.12219536 257.26139647 581.44677734 247.34619141 C587.03532317 239.77336301 592.54622102 232.14587054 598.04443359 224.50732422 C600.31119308 221.36201775 602.58547568 218.22217793 604.859375 215.08203125 C607.0107754 212.10774498 609.15519198 209.12845946 611.29931641 206.14892578 C612.49469225 204.49434295 613.70140324 202.84796053 614.91015625 201.203125 C622.57980732 190.62260423 626.90111447 179.46071292 625.6796875 166.23828125 C623.52264346 152.71597156 617.46899176 141.77678852 606.6796875 133.23828125 C594.93896261 125.89182535 583.4397209 122.76436448 569.6796875 125.23828125 C549.94314279 130.45629923 540.6136537 144.03759386 529.38085938 159.84765625 C526.68504706 163.63603085 523.96454561 167.40645805 521.2421875 171.17578125 C520.44228394 172.28457642 520.44228394 172.28457642 519.6262207 173.41577148 C515.09657522 179.68482254 510.50808546 185.90951043 505.91259766 192.13037109 C500.31536576 199.71496965 494.79560123 207.35416455 489.28857422 215.00439453 C486.04822555 219.50351294 482.79941048 223.99652244 479.55224609 228.49072266 C476.85370728 232.22622625 474.15710797 235.96309605 471.46484375 239.703125 C465.33212071 248.21748806 459.14735961 256.69044327 452.91259766 265.13037109 C446.77049116 273.45330874 440.72178067 281.8426034 434.6796875 290.23828125 C427.47905542 300.24378523 420.23717964 310.21516603 412.91259766 320.13037109 C407.31536576 327.71496965 401.79560123 335.35416455 396.28857422 343.00439453 C393.04822555 347.50351294 389.79941048 351.99652244 386.55224609 356.49072266 C383.85370728 360.22622625 381.15710797 363.96309605 378.46484375 367.703125 C372.33212071 376.21748806 366.14735961 384.69044327 359.91259766 393.13037109 C353.77049116 401.45330874 347.72178067 409.8426034 341.6796875 418.23828125 C334.48428865 428.23651349 327.24954793 438.20208542 319.92797852 448.10839844 C315.27838192 454.40655331 310.68358369 460.74285581 306.1171875 467.1015625 C305.3746875 468.13410156 305.3746875 468.13410156 304.6171875 469.1875 C304.13894531 469.85313965 303.66070313 470.5187793 303.16796875 471.20458984 C301.09317864 474.03972791 298.94243229 476.81549758 296.78125 479.58520508 C295.49484416 481.18458924 295.49484416 481.18458924 295.6796875 483.23828125 C295.0196875 483.23828125 294.3596875 483.23828125 293.6796875 483.23828125 C293.4425 482.53574219 293.2053125 481.83320313 292.9609375 481.109375 C291.44720219 477.71731568 289.49493822 475.20583477 287.1796875 472.30078125 C283.63233131 467.78988208 280.18334247 463.23447853 276.8671875 458.55078125 C276.46016602 457.97682617 276.05314453 457.40287109 275.63378906 456.81152344 C274.77372809 455.59844743 273.9138707 454.38522706 273.05419922 453.171875 C265.45437497 442.48082561 257.70694205 431.89735948 249.91333008 421.34716797 C244.31583235 413.76225977 238.79583894 406.12272817 233.28857422 398.47216797 C230.58956632 394.72468356 227.88437256 390.98166924 225.1796875 387.23828125 C221.93837297 382.75217746 218.69826796 378.26523294 215.46484375 373.7734375 C209.91164126 366.06365152 204.32531545 358.38070494 198.6796875 350.73828125 C191.40026128 340.88420304 184.23138426 330.95253791 177.07519531 321.00878906 C170.92639571 312.46775132 164.74662753 303.95236361 158.4921875 295.48828125 C153.67574534 288.96960046 148.91945815 282.41379845 144.22265625 275.80859375 C136.23122975 264.57312282 128.10546355 253.43683697 119.91333008 242.34716797 C113.22728575 233.28722104 106.65232731 224.14792013 100.07519531 215.00878906 C93.9873 206.55235089 87.87100009 198.11939216 81.6796875 189.73828125 C77.1260709 183.57410116 72.60094018 177.39098457 68.1171875 171.17578125 C67.58843018 170.44367432 67.05967285 169.71156738 66.51489258 168.95727539 C63.74881218 165.12306695 60.99609701 161.27989339 58.2578125 157.42578125 C43.13886838 135.87328663 43.13886838 135.87328663 19.6796875 125.23828125 C2.98960868 122.56876595 -10.89892589 127.14687808 -23.1328125 138.890625 Z " fill="#BB5A77" transform="translate(802.3203125,-0.23828125)"/>
<path d="M0 0 C349.87130879 0 349.87130879 0 423 36 C423.84884766 36.41749512 424.69769531 36.83499023 425.57226562 37.26513672 C455.40845298 52.10669716 485.2370346 72.30901599 508.4375 96.4375 C510.17065598 98.17065598 512.00188648 99.73206047 513.875 101.3125 C517.81369846 104.71341463 521.23239311 108.44945598 524.6640625 112.35546875 C526.1956818 114.08942572 527.75246807 115.80154208 529.3359375 117.48828125 C544.91601963 134.10199342 558.56728312 153.30496938 569.88476562 173.0546875 C570.64352818 174.37820327 571.40808335 175.69841131 572.17773438 177.015625 C600.49638324 225.5358221 616.927553 282.72734975 618 339 C618.02046387 339.82709473 618.04092773 340.65418945 618.06201172 341.50634766 C619.8484852 422.22246785 594.72436045 502.7798321 544 566 C543.57348145 566.53689453 543.14696289 567.07378906 542.70751953 567.62695312 C538.03816228 573.49916711 533.15358442 579.14201897 528.09765625 584.68359375 C526.29408387 586.67524817 524.54893904 588.70021857 522.8125 590.75 C514.9450182 599.77554571 506.24162374 608.38832017 497 616 C496.20916016 616.66153076 496.20916016 616.66153076 495.40234375 617.33642578 C446.20528052 658.44466301 387.97793072 686.15180901 324.625 696.75 C323.45743164 696.94883789 322.28986328 697.14767578 321.08691406 697.35253906 C215.35759463 714.02556942 107.03587683 701 0 701 C0 469.67 0 238.34 0 0 Z M127 127 C127 274.51 127 422.02 127 574 C214.97583501 577.72007746 214.97583501 577.72007746 310.875 569.875 C311.94959473 569.66327148 313.02418945 569.45154297 314.13134766 569.23339844 C357.04245481 560.30587914 395.23425578 537.8144242 426 507 C426.804375 506.24203125 427.60875 505.4840625 428.4375 504.703125 C465.98327854 468.75991017 489.20941372 413.43794402 490.34765625 361.74609375 C490.6359926 344.07078858 490.78890881 326.34396109 487 309 C486.82839355 308.15888672 486.65678711 307.31777344 486.47998047 306.45117188 C479.36119708 271.86877105 464.10440288 239.5537522 442 212 C441.195625 210.99195313 440.39125 209.98390625 439.5625 208.9453125 C428.72056302 195.62474951 416.5465532 183.43307445 402.70019531 173.25146484 C401.00363496 172.00267559 399.32604025 170.73112897 397.6484375 169.45703125 C388.61367082 162.69564639 379.00986819 157.18493876 369 152 C368.18644043 151.57686523 367.37288086 151.15373047 366.53466797 150.71777344 C348.90121449 141.65895157 330.68452977 135.10518445 311.25 131.125 C310.31833008 130.93381592 309.38666016 130.74263184 308.42675781 130.5456543 C248.9897548 119.32353246 187.48713372 127 127 127 Z " fill="#BB5A77" transform="translate(0,46)"/>
<path d="M0 0 C1.5590506 -0.01058945 1.5590506 -0.01058945 3.14959717 -0.02139282 C46.94523058 -0.25127723 46.94523058 -0.25127723 67.65625 3.203125 C68.89101074 3.40711914 70.12577148 3.61111328 71.39794922 3.82128906 C121.88229887 12.41357154 170.07287584 30.52394658 212.65625 59.203125 C213.38247559 59.69135742 214.10870117 60.17958984 214.85693359 60.68261719 C229.11899646 70.34781682 242.46604492 81.02783913 255.0546875 92.78515625 C257.25801288 94.8329917 259.49506583 96.81189391 261.78125 98.765625 C268.56052591 104.6569708 274.87967089 111.08542269 280.70703125 117.91796875 C282.20673008 119.67613271 283.72944016 121.4146875 285.26171875 123.14453125 C315.19515687 157.11087223 337.92051445 197.48539897 352.65625 240.203125 C352.97432617 241.12158203 353.29240234 242.04003906 353.62011719 242.98632812 C361.45741138 265.90038156 366.52909332 289.20610642 369.65625 313.203125 C369.77484375 314.05181152 369.8934375 314.90049805 370.015625 315.77490234 C374.16324316 346.22162914 373.04032345 378.85549845 368.65625 409.203125 C368.40681641 410.93973389 368.40681641 410.93973389 368.15234375 412.71142578 C363.03467122 446.93823012 352.59447824 480.01608472 337.65625 511.203125 C337.24149414 512.08033203 336.82673828 512.95753906 336.39941406 513.86132812 C324.11493621 539.72435974 308.57885183 563.40503554 290.21044922 585.34033203 C288.77292188 587.06328736 287.35532699 588.80064011 285.94140625 590.54296875 C279.58317401 598.27511351 272.64754181 605.42099803 265.59375 612.515625 C264.68375244 613.4348877 263.77375488 614.35415039 262.83618164 615.30126953 C256.74845571 621.36107765 250.36542148 626.84707516 243.65625 632.203125 C242.62887523 633.0667218 241.60548433 633.93513316 240.58984375 634.8125 C170.4322771 694.97892649 75.45532078 721.15021823 -15.78125 714.453125 C-91.31988146 708.08470518 -166.82041175 677.74578768 -222.6484375 625.6875 C-224.7709354 623.73111063 -226.91976505 621.8368405 -229.10546875 619.953125 C-233.67806792 615.96471886 -237.99414313 611.74480039 -242.28125 607.453125 C-243.07466797 606.65890137 -243.86808594 605.86467773 -244.68554688 605.04638672 C-250.31693248 599.35590632 -255.4185539 593.51474441 -260.34375 587.203125 C-261.92386808 585.34621753 -263.50739866 583.49221024 -265.09375 581.640625 C-307.24595293 530.8501432 -332.68328039 467.27572854 -341.34375 402.203125 C-341.46234375 401.33381348 -341.5809375 400.46450195 -341.703125 399.56884766 C-353.41795926 309.11010511 -326.81447672 213.94195557 -271.69921875 141.72265625 C-253.74329586 118.44622047 -233.67476839 96.20590624 -210.34375 78.203125 C-209.63621582 77.65543457 -208.92868164 77.10774414 -208.19970703 76.54345703 C-196.93156913 67.8609193 -185.50730005 59.58785117 -173.34375 52.203125 C-172.57047363 51.73342285 -171.79719727 51.2637207 -171.00048828 50.77978516 C-119.96920551 20.09959369 -59.93865869 0.27342109 0 0 Z M-159.34375 205.203125 C-162.8178689 209.1624893 -166.03058659 213.29371979 -169.13330078 217.54833984 C-170.33822093 219.19556631 -171.57074182 220.81883641 -172.80859375 222.44140625 C-208.11919076 269.44319204 -222.30921889 330.26806127 -214.75219727 388.24023438 C-208.98565157 428.2250332 -193.61248769 466.51476206 -168.34375 498.203125 C-167.63863281 499.1003125 -166.93351562 499.9975 -166.20703125 500.921875 C-128.67682023 547.81779398 -73.86549831 579.47278965 -13.96484375 586.60546875 C-6.76877661 587.34758923 0.43137132 587.84903235 7.65625 588.203125 C8.83574219 588.26371094 10.01523438 588.32429688 11.23046875 588.38671875 C14.39302419 588.45849905 17.4962228 588.36544334 20.65625 588.203125 C21.49462402 588.16203613 22.33299805 588.12094727 23.19677734 588.07861328 C46.28299899 586.85241485 68.89460472 583.14865595 90.65625 575.203125 C91.46223633 574.91066895 92.26822266 574.61821289 93.09863281 574.31689453 C131.67605417 560.10059548 167.05198262 535.47662778 192.65625 503.203125 C193.31238281 502.41421875 193.96851562 501.6253125 194.64453125 500.8125 C204.96046958 488.32587325 213.15112455 474.51500423 220.65625 460.203125 C221.00929199 459.53651855 221.36233398 458.86991211 221.72607422 458.18310547 C232.62928681 437.31094311 238.99934112 414.37706196 242.65625 391.203125 C242.78612305 390.39037109 242.91599609 389.57761719 243.04980469 388.74023438 C247.92950328 356.50962013 244.3683299 323.41867164 235.65625 292.203125 C235.43098633 291.39472168 235.20572266 290.58631836 234.97363281 289.75341797 C218.48813942 232.39917901 176.2470207 183.95379492 124.78125 155.015625 C104.65168357 143.9908298 83.80117315 136.16345542 61.34375 131.390625 C60.4269043 131.1956543 59.51005859 131.00068359 58.56542969 130.79980469 C43.92597975 127.87603994 29.42763655 126.81812424 14.53125 126.890625 C13.72643188 126.89278015 12.92161377 126.8949353 12.09240723 126.89715576 C-54.63910391 127.18238953 -114.3742214 156.74092311 -159.34375 205.203125 Z " fill="#BB5A77" transform="translate(3168.34375,38.796875)"/>
<path d="M0 0 C1.03959366 -0.00701431 2.07918732 -0.01402863 3.15028381 -0.02125549 C6.48565054 -0.03865124 9.82083957 -0.04510759 13.15625 -0.046875 C14.29730194 -0.04754974 15.43835388 -0.04822449 16.61398315 -0.04891968 C33.81008361 -0.03276375 50.65174647 0.40678036 67.65625 3.203125 C68.72375488 3.37473145 69.79125977 3.54633789 70.89111328 3.72314453 C132.58245448 13.93658007 192.81660322 39.54999365 240.65625 80.203125 C241.64496094 81.01910156 242.63367187 81.83507812 243.65234375 82.67578125 C259.46660119 95.76741069 275.02378465 109.95262346 287.65625 126.203125 C283.65916105 130.98159044 279.50131405 135.52840378 275.11328125 139.94921875 C274.50417404 140.56402603 273.89506683 141.17883331 273.26750183 141.81227112 C271.98563105 143.10352202 270.70235226 144.39337656 269.41772461 145.68188477 C267.48406404 147.62523423 265.5613691 149.57901451 263.63867188 151.53320312 C254.50362551 160.74863566 245.36677769 168.88651427 233.53125 174.515625 C232.84313232 174.84900879 232.15501465 175.18239258 231.44604492 175.52587891 C211.05310158 185.25148481 187.70452083 185.87306509 166.26171875 179.13671875 C157.11578569 175.8493905 149.11429381 171.03866874 140.9453125 165.84765625 C87.66556071 132.01892662 25.11436558 119.51166816 -36.80615234 133.20336914 C-76.68881178 142.47510624 -114.45455776 161.88579044 -143.80664062 190.69677734 C-145.40399911 192.26216837 -147.02144131 193.80487601 -148.640625 195.34765625 C-156.32371122 202.75285079 -162.98358436 210.64724478 -169.34375 219.203125 C-169.7675293 219.76080566 -170.19130859 220.31848633 -170.62792969 220.89306641 C-177.88886973 230.45618768 -183.75637 240.58873742 -189.34375 251.203125 C-189.88926514 252.22841309 -189.88926514 252.22841309 -190.44580078 253.27441406 C-218.5198926 306.31333049 -222.35399843 368.70791821 -205.15649414 425.83544922 C-196.93545342 451.6814727 -183.28014939 476.06957254 -166.34375 497.203125 C-165.57417969 498.17636719 -164.80460937 499.14960937 -164.01171875 500.15234375 C-151.07498205 516.16247693 -136.18262791 530.38332973 -119.34375 542.203125 C-118.71549316 542.64946289 -118.08723633 543.09580078 -117.43994141 543.55566406 C-107.51970908 550.55848772 -97.08587743 556.5576622 -86.34375 562.203125 C-85.6930957 562.55084961 -85.04244141 562.89857422 -84.37207031 563.25683594 C-25.27178946 594.46641238 47.20640033 592.79858631 109.7265625 573.68359375 C122.87437023 569.44726714 135.13540782 563.39754745 147.45166016 557.19360352 C149.65625 556.203125 149.65625 556.203125 151.65625 556.203125 C151.65625 524.853125 151.65625 493.503125 151.65625 461.203125 C142.74625 461.203125 133.83625 461.203125 124.65625 461.203125 C99.15975334 459.09597652 77.94731759 447.82062744 61.40625 428.453125 C40.09344222 400.36098335 42.65625 369.26706115 42.65625 334.203125 C120.20625 334.203125 197.75625 334.203125 277.65625 334.203125 C278.22088889 407.41796734 278.22088889 407.41796734 278.33984375 438.02734375 C278.36725208 445.03304501 278.39553829 452.03874188 278.42529297 459.04443359 C278.43083169 460.3614252 278.43083169 460.3614252 278.43648231 461.70502269 C278.49729831 475.86169817 278.6076284 490.01757386 278.73638915 504.17377581 C278.86752209 518.71253305 278.94511685 533.25087293 278.97348893 547.79019725 C278.99265658 556.75523483 279.05308372 565.71801259 279.16708054 574.68235408 C279.24134862 580.8378259 279.26339402 586.9921375 279.24526928 593.14802434 C279.23633926 596.69552262 279.24956378 600.23908734 279.32512665 603.78587723 C279.79998057 627.2222072 279.79998057 627.2222072 272.80218899 634.9094094 C270.4452218 637.11969522 268.01669629 639.10419551 265.38137269 640.9725492 C262.84994016 642.77828721 260.55602181 644.84343333 258.21875 646.890625 C256.37655472 648.34343498 254.52156798 649.78012497 252.65625 651.203125 C252.11452148 651.62126465 251.57279297 652.0394043 251.01464844 652.47021484 C195.71253632 694.97809183 127.85341406 709.45140896 59.65625 714.203125 C58.63144531 714.27660156 57.60664063 714.35007812 56.55078125 714.42578125 C-43.48104832 721.28927905 -139.51852244 695.84407151 -221.79101562 626.56054688 C-234.30967128 615.61656488 -246.7770396 604.07083154 -257.34375 591.203125 C-257.7886377 590.67203125 -258.23352539 590.1409375 -258.69189453 589.59375 C-313.3097187 524.36595616 -343.53718076 443.33120718 -343.59375 358.203125 C-343.59442474 357.28271423 -343.59509949 356.36230347 -343.59579468 355.41400146 C-343.49374897 267.14160618 -310.31523024 180.52468566 -249.87109375 115.91796875 C-247.57581385 113.45240533 -245.36496535 110.93336157 -243.15625 108.390625 C-233.55207403 97.70015983 -222.63841153 88.05966714 -211.34375 79.203125 C-210.01913001 78.13721719 -208.69494658 77.07076673 -207.37109375 76.00390625 C-149.66855322 29.88180638 -74.29362298 0.33850728 0 0 Z " fill="#BB5A77" transform="translate(2475.34375,38.796875)"/>
<path d="M0 0 C37.62 0 75.24 0 114 0 C121.59328922 16.93887594 129.15663692 33.86680939 136.50390625 50.91015625 C140.37789188 59.88655119 144.2808015 68.8503031 148.1875 77.8125 C148.54191162 78.62570709 148.89632324 79.43891418 149.26147461 80.27676392 C155.28292676 94.09055348 161.3389508 107.88902423 167.40240479 121.68441772 C172.67148847 133.67432873 177.90937534 145.67686058 183.10742188 157.69775391 C187.47016919 167.78558837 191.85651174 177.86301812 196.25 187.9375 C196.60780548 188.75800842 196.96561096 189.57851685 197.33425903 190.42388916 C199.15949736 194.60933623 200.98496471 198.79468336 202.81054688 202.97998047 C206.0221192 210.34307575 209.23162048 217.70707369 212.44125366 225.0710144 C213.50281193 227.50645117 214.56449689 229.94183267 215.6262207 232.37719727 C218.8060646 239.67123186 221.98536778 246.96549955 225.16177368 254.2610321 C232.83024951 271.8737257 240.5202832 289.47658787 248.25 307.0625 C253.9039563 319.92608078 259.53045872 332.80058595 265.10742188 345.69775391 C269.47016919 355.78558837 273.85651174 365.86301812 278.25 375.9375 C278.60780548 376.75800842 278.96561096 377.57851685 279.33425903 378.42388916 C281.15949736 382.60933623 282.98496471 386.79468336 284.81054688 390.97998047 C288.0221192 398.34307575 291.23162048 405.70707369 294.44125366 413.0710144 C295.50281193 415.50645117 296.56449689 417.94183267 297.6262207 420.37719727 C300.8060646 427.67123186 303.98536778 434.96549955 307.16177368 442.2610321 C314.83024951 459.8737257 322.5202832 477.47658787 330.25 495.0625 C335.9039563 507.92608078 341.53045872 520.80058595 347.10742188 533.69775391 C351.47016919 543.78558837 355.85651174 553.86301812 360.25 563.9375 C360.60780548 564.75800842 360.96561096 565.57851685 361.33425903 566.42388916 C363.15949736 570.60933623 364.98496471 574.79468336 366.81054688 578.97998047 C368.96294475 583.91473175 371.11444231 588.84987514 373.265625 593.78515625 C373.61530838 594.58740128 373.96499176 595.3896463 374.32527161 596.21620178 C375.73702673 599.45511843 377.14873973 602.69405344 378.56039429 605.93301392 C382.46687962 614.89621937 386.3744365 623.85895365 390.28515625 632.8203125 C393.80988269 640.8975579 397.33025651 648.97669041 400.84765625 657.05712891 C402.33061898 660.46367065 403.81520716 663.86949862 405.30078125 667.27490234 C407.19740144 671.62317957 409.09022746 675.97309067 410.98043823 680.32415771 C411.69752475 681.97319177 412.41587327 683.62167765 413.13552856 685.26959229 C414.12630366 687.53894529 415.11254244 689.8102162 416.09765625 692.08203125 C416.54159729 693.09465279 416.54159729 693.09465279 416.99450684 694.12773132 C419 698.77178965 419 698.77178965 419 701 C407.8198678 701.06995282 396.6397889 701.12303883 385.45948124 701.15543652 C380.2662837 701.170997 375.07323746 701.19205636 369.88012695 701.22631836 C364.8550464 701.25925886 359.83011005 701.27692502 354.80492973 701.28463173 C352.90148084 701.29011371 350.99803854 701.30081558 349.09465218 701.31719017 C320.5288936 701.55284207 295.55852061 695.25887797 274.74609375 674.8671875 C268.310394 668.14769445 263.35476591 661.11482575 259.2578125 652.7890625 C258.91583832 652.09884506 258.57386414 651.40862762 258.2215271 650.69749451 C254.09138039 642.27040195 250.361024 633.66940165 246.625 625.0625 C245.85184744 623.29016922 245.07823743 621.51803792 244.30419922 619.74609375 C242.69193089 616.05431012 241.08162917 612.36167799 239.47265625 608.66845703 C235.76731017 600.16809769 232.03616944 591.67905768 228.30633545 583.18942261 C227.14973812 580.5563187 225.99392565 577.92287175 224.83837891 575.28930664 C224.12402647 573.66161976 223.40967115 572.03393415 222.6953125 570.40625 C222.37937134 569.68602158 222.06343018 568.96579315 221.73791504 568.22373962 C219.50701255 563.14226014 217.25398001 558.07145502 215 553 C110.72 553 6.44 553 -101 553 C-114.94816553 584.42886313 -114.94816553 584.42886313 -128.55523682 615.99703979 C-143.11432341 650.36832339 -156.22293188 680.87221091 -193 696 C-203.47410342 699.68943021 -214.02240975 701.16299726 -225.078125 701.11352539 C-226.38197899 701.11374443 -226.38197899 701.11374443 -227.71217346 701.1139679 C-230.55814187 701.11327651 -233.40404316 701.10552069 -236.25 701.09765625 C-238.23396774 701.09578932 -240.21793593 701.09436671 -242.2019043 701.09336853 C-247.40339448 701.08956504 -252.60485638 701.07975342 -257.80633545 701.06866455 C-263.12218849 701.05840366 -268.43804614 701.05386091 -273.75390625 701.04882812 C-284.1692832 701.03812908 -294.58463924 701.02107889 -305 701 C-302.11841835 693.37234672 -299.14523193 685.82065924 -295.8125 678.37890625 C-295.43330414 677.52471603 -295.05410828 676.67052582 -294.66342163 675.79045105 C-293.8593775 673.97986057 -293.05396783 672.16987594 -292.24725342 670.36047363 C-290.10841761 665.56240605 -287.98057923 660.75946182 -285.8515625 655.95703125 C-285.42952545 655.00569305 -285.0074884 654.05435486 -284.57266235 653.07418823 C-281.13351948 645.31645047 -277.73900447 637.54061149 -274.375 629.75 C-273.34505533 627.36588401 -272.31510736 624.98176945 -271.28515625 622.59765625 C-270.89607338 621.69675262 -270.89607338 621.69675262 -270.49913025 620.77764893 C-266.95420422 612.57342139 -263.38351203 604.38039876 -259.8125 596.1875 C-259.45754456 595.37302399 -259.10258911 594.55854797 -258.73687744 593.71939087 C-252.71596789 579.90688614 -246.66048803 566.10969902 -240.59759521 552.31558228 C-235.32851153 540.32567127 -230.09062466 528.32313942 -224.89257812 516.30224609 C-220.52983081 506.21441163 -216.14348826 496.13698188 -211.75 486.0625 C-211.39219452 485.24199158 -211.03438904 484.42148315 -210.66574097 483.57611084 C-208.84050264 479.39066377 -207.01503529 475.20531664 -205.18945312 471.02001953 C-201.9778808 463.65692425 -198.76837952 456.29292631 -195.55874634 448.9289856 C-194.49718807 446.49354883 -193.43550311 444.05816733 -192.3737793 441.62280273 C-189.1939354 434.32876814 -186.01463222 427.03450045 -182.83822632 419.7389679 C-175.16975049 402.1262743 -167.4797168 384.52341213 -159.75 366.9375 C-154.0960437 354.07391922 -148.46954128 341.19941405 -142.89257812 328.30224609 C-138.52983081 318.21441163 -134.14348826 308.13698188 -129.75 298.0625 C-129.39219452 297.24199158 -129.03438904 296.42148315 -128.66574097 295.57611084 C-126.84050264 291.39066377 -125.01503529 287.20531664 -123.18945312 283.02001953 C-119.9778808 275.65692425 -116.76837952 268.29292631 -113.55874634 260.9289856 C-112.49718807 258.49354883 -111.43550311 256.05816733 -110.3737793 253.62280273 C-107.1939354 246.32876814 -104.01463222 239.03450045 -100.83822632 231.7389679 C-93.16975049 214.1262743 -85.4797168 196.52341213 -77.75 178.9375 C-72.0960437 166.07391922 -66.46954128 153.19941405 -60.89257812 140.30224609 C-56.52983081 130.21441163 -52.14348826 120.13698188 -47.75 110.0625 C-47.21329178 108.83173737 -47.21329178 108.83173737 -46.66574097 107.57611084 C-44.84050264 103.39066377 -43.01503529 99.20531664 -41.18945312 95.02001953 C-39.03705525 90.08526825 -36.88556037 85.1501237 -34.734375 80.21484375 C-34.20910217 79.00977676 -34.20910217 79.00977676 -33.67321777 77.78036499 C-31.9161042 73.74915225 -30.15914252 69.71787338 -28.40234375 65.68652344 C-25.10564735 58.12197739 -21.80765164 50.55800591 -18.50512695 42.9960022 C-16.95823643 39.4537721 -15.41207511 35.91122392 -13.8659668 32.36865234 C-13.13407066 30.6922243 -12.40182369 29.01594936 -11.66918945 27.33984375 C-10.64833982 25.00430308 -9.62874151 22.66821955 -8.609375 20.33203125 C-8.31734192 19.66480545 -8.02530884 18.99757965 -7.72442627 18.31013489 C-5.07600499 12.23471546 -2.55036019 6.12086446 0 0 Z M57 190 C51.30509091 200.84361501 46.5350778 212.07330622 41.6875 223.3125 C40.79814468 225.367431 39.90840904 227.42219744 39.01831055 229.47680664 C37.20988019 233.65165432 35.40281448 237.82708843 33.59667969 242.00292969 C30.19569057 249.86220536 26.77410118 257.71246049 23.34927368 265.56137085 C21.96019608 268.74492753 20.57198504 271.9288618 19.18373108 275.11277771 C18.14813682 277.48782469 17.11241005 279.86281385 16.07666016 282.23779297 C13.97118115 287.06586344 11.86635967 291.89422039 9.76171875 296.72265625 C9.4104895 297.52844116 9.05926025 298.33422607 8.6973877 299.16442871 C7.6315813 301.60961457 6.56578804 304.05480614 5.5 306.5 C1.28587945 316.16828425 -2.92851308 325.83644931 -7.14453125 335.50390625 C-11.03569301 344.42677422 -14.92507724 353.35041563 -18.81280518 362.27478027 C-19.6354744 364.16322717 -20.45819083 366.05165351 -21.28094482 367.94006348 C-23.99480092 374.16920955 -26.70747746 380.39886743 -29.41879272 386.62911987 C-30.29495498 388.6420575 -31.17143174 390.65485827 -32.04824829 392.66751099 C-37.6059914 405.41883417 -37.6059914 405.41883417 -43.078125 418.20703125 C-43.4587207 419.10526611 -43.83931641 420.00350098 -44.23144531 420.92895508 C-45.1159706 422.94433403 -45.1159706 422.94433403 -45 425 C22.65 425 90.3 425 160 425 C153.17302442 407.9315568 153.17302442 407.9315568 145.8125 391.125 C144.67145309 388.60683186 143.5345891 386.0867863 142.3984375 383.56640625 C142.11288498 382.93353195 141.82733246 382.30065765 141.53312683 381.64860535 C138.60520018 375.1470581 135.76388139 368.60877562 132.9375 362.0625 C132.41679932 360.8566626 131.89609863 359.6508252 131.35961914 358.40844727 C130.51843611 356.46014001 129.6773381 354.51179628 128.83650208 352.56333923 C124.65957876 342.88833759 120.45287986 333.22624567 116.25 323.5625 C115.60783539 322.08571777 115.60783539 322.08571777 114.95269775 320.57910156 C107.35333429 303.10309907 99.7420757 285.63229803 92.1240387 268.16442871 C89.63365538 262.45385708 87.14466625 256.74267904 84.65625 251.03125 C75.78878483 230.6796256 66.9053037 210.3350972 58 190 C57.67 190 57.34 190 57 190 Z " fill="#BB5A77" transform="translate(1740,46)"/>
<path d="M0 0 C11.22 0 22.44 0 34 0 C37.33441169 10.29131843 40.6681209 20.5828617 44 30.875 C44.2478978 31.64073586 44.49579559 32.40647171 44.75120544 33.19541168 C52.29419291 56.49653893 59.80283337 79.80817476 67.25 103.14013672 C67.56040222 104.11241211 67.87080444 105.0846875 68.19061279 106.08642578 C68.75943948 107.868679 69.32787529 109.65105704 69.89581299 111.43359375 C71.23528251 115.63234666 72.5944296 119.82275226 74 124 C81.06725572 103.6702697 87.93131587 83.27594859 94.6484375 62.828125 C94.93886806 61.94421144 95.22929863 61.06029789 95.52853012 60.14959908 C98.49706315 51.11331247 101.46059198 42.07540417 104.41552925 33.03466225 C105.54334121 29.58579544 106.67349444 26.13769854 107.8040657 22.68973541 C108.33717865 21.06170642 108.86913479 19.43329812 109.39988327 17.80449677 C110.13327555 15.55388387 110.87042068 13.30453265 111.60839844 11.05541992 C111.82235952 10.39542716 112.03632061 9.7354344 112.25676537 9.05544186 C113.31018722 5.8579465 114.48530039 3.02939923 116 0 C124.91 0 133.82 0 143 0 C151.40464155 24.41075072 159.66046936 48.86985 167.82805634 73.36078644 C168.55731788 75.54696506 169.28716298 77.73294809 170.01715088 79.91888428 C179.99399729 109.8005104 179.99399729 109.8005104 184 123 C185.73882414 120.39176378 186.58515487 118.59503891 187.53369141 115.67944336 C187.8228392 114.79813248 188.111987 113.91682159 188.40989685 113.00880432 C188.72064651 112.04554733 189.03139618 111.08229034 189.3515625 110.08984375 C189.68281631 109.07506454 190.01407013 108.06028534 190.35536194 107.01475525 C191.44986511 103.6571555 192.53752677 100.2973826 193.625 96.9375 C194.38489686 94.60098455 195.14507294 92.26455989 195.90551758 89.92822266 C201.88064349 71.54755919 207.78368188 53.14356614 213.64501953 34.72631836 C217.34139331 23.119688 221.12118244 11.547079 225 0 C235.89 0 246.78 0 258 0 C256.87515008 6.74909954 256.87515008 6.74909954 255.74755859 9.93017578 C255.36892166 11.01046555 255.36892166 11.01046555 254.9826355 12.11257935 C254.70735016 12.88238129 254.43206482 13.65218323 254.1484375 14.4453125 C253.85792511 15.27094696 253.56741272 16.09658142 253.26809692 16.94723511 C252.63839177 18.73573218 252.00654814 20.52347745 251.37280273 22.31054688 C249.65202829 27.16425075 247.94783167 32.02377537 246.2421875 36.8828125 C245.71229218 38.39068329 245.71229218 38.39068329 245.17169189 39.92901611 C241.54557441 50.26269675 238.01820888 60.62919513 234.5 71 C229.22352768 86.53973642 223.86438317 102.04854789 218.44284058 117.53823853 C211.86763842 136.32679142 205.41800735 155.15724992 199 174 C189.43 174 179.86 174 170 174 C168.51371094 169.59011719 167.02742188 165.18023438 165.49609375 160.63671875 C163.47779266 154.65323027 161.45804325 148.67023168 159.4375 142.6875 C159.17672165 141.91533016 158.9159433 141.14316032 158.64726257 140.3475914 C151.34820978 118.73859434 143.99155389 97.15290169 136.43139648 75.63354492 C136.00657234 74.42430862 136.00657234 74.42430862 135.57316589 73.19064331 C135.06290692 71.73980437 134.55179842 70.28926367 134.039505 68.83914185 C132.30282538 63.91135537 130.63977902 58.96082835 129 54 C120.93135132 76.98363917 112.94994412 99.99464596 105.125 123.0625 C104.40113489 125.19572342 103.67725806 127.32894286 102.95336914 129.4621582 C102.60309158 130.49444046 102.25281403 131.52672272 101.891922 132.59028625 C101.54860336 133.60205429 101.20528473 134.61382233 100.8515625 135.65625 C100.51585739 136.64566086 100.18015228 137.63507172 99.83427429 138.65446472 C97.07120336 146.79567497 94.2988241 154.9335021 91.5 163.0625 C91.14437988 164.10220947 90.78875977 165.14191895 90.42236328 166.21313477 C90.1076709 167.12377686 89.79297852 168.03441895 89.46875 168.97265625 C89.07333008 170.12133179 89.07333008 170.12133179 88.66992188 171.29321289 C88 173 88 173 87 174 C84.92737924 174.08767112 82.85179706 174.10695873 80.77734375 174.09765625 C79.51728516 174.09443359 78.25722656 174.09121094 76.95898438 174.08789062 C75.61848891 174.07953403 74.27799412 174.07106907 72.9375 174.0625 C71.59310058 174.0574866 70.2486994 174.05292342 68.90429688 174.04882812 C65.60282059 174.03699488 62.30143197 174.02050971 59 174 C58.43623657 172.33843872 58.43623657 172.33843872 57.86108398 170.64331055 C50.9408549 150.25670839 43.98893843 129.88241682 36.875 109.5625 C29.86582677 89.54150273 22.95504394 69.4871423 16.06093597 49.42630863 C15.41259176 47.53982509 14.76406634 45.65340382 14.11553955 43.76698303 C13.27864693 41.33207591 12.44233128 38.89697039 11.60662842 36.46165466 C9.6233973 30.68877848 7.6254398 24.92186089 5.59326172 19.16601562 C5.02991371 17.56581573 5.02991371 17.56581573 4.45518494 15.93328857 C3.75152558 13.93807998 3.04403538 11.94421674 2.33204651 9.95196533 C2.02323044 9.07546326 1.71441437 8.19896118 1.39624023 7.29589844 C1.12512924 6.53420349 0.85401825 5.77250854 0.57469177 4.98773193 C0 3 0 3 0 0 Z " fill="#BB5A77" transform="translate(1485,877)"/>
<path d="M0 0 C3.3343468 3.29457328 5.71822233 6.84422433 7.96484375 10.94140625 C8.37863281 11.63234375 8.79242187 12.32328125 9.21875 13.03515625 C13.86210159 22.22478588 13.25828948 34.51051037 11.26953125 44.3984375 C7.21815829 56.56957895 -2.39251371 66.21668584 -13.63476562 72.06030273 C-21.45119765 75.94140625 -21.45119765 75.94140625 -24.03515625 75.94140625 C-20.50534389 80.08893578 -16.91781774 84.11941135 -13.03515625 87.94140625 C-9.72955562 91.19585639 -6.66801276 94.59353756 -3.64453125 98.109375 C-1.54276083 100.50192434 0.67925317 102.72507599 2.96484375 104.94140625 C7.70640293 98.21196594 11.59701247 91.20284153 15.33984375 83.87890625 C15.88511719 82.82251953 16.43039062 81.76613281 16.9921875 80.67773438 C18.32117501 78.10136385 19.64527122 75.52260792 20.96484375 72.94140625 C24.7154794 73.52808155 27.52411975 74.59080633 30.828125 76.4453125 C31.71435547 76.93837891 32.60058594 77.43144531 33.51367188 77.93945312 C34.88168945 78.71385742 34.88168945 78.71385742 36.27734375 79.50390625 C37.20869141 80.02404297 38.14003906 80.54417969 39.09960938 81.08007812 C41.3914817 82.36117599 43.67965988 83.6484273 45.96484375 84.94140625 C39.38806188 98.40981594 32.56681183 111.62495195 23.96484375 123.94140625 C25.56857523 127.94658021 28.38598361 130.61851605 31.41015625 133.58203125 C31.94003143 134.10907654 32.46990662 134.63612183 33.01583862 135.17913818 C34.702522 136.854663 36.39603939 138.52308347 38.08984375 140.19140625 C39.23743763 141.32896476 40.38457836 142.46698061 41.53125 143.60546875 C44.33722512 146.3894409 47.14934839 149.16706385 49.96484375 151.94140625 C45.72986797 156.2845698 41.32681135 159.80798727 36.40234375 163.31640625 C35.64759766 163.87457031 34.89285156 164.43273438 34.11523438 165.0078125 C33.38369141 165.52988281 32.65214844 166.05195312 31.8984375 166.58984375 C31.23900146 167.06599121 30.57956543 167.54213867 29.90014648 168.03271484 C27.96484375 168.94140625 27.96484375 168.94140625 26.0168457 168.86791992 C23.14650043 167.57191036 21.40227818 165.71417596 19.19921875 163.46875 C18.30976562 162.56962891 17.4203125 161.67050781 16.50390625 160.74414062 C15.58351563 159.79861328 14.663125 158.85308594 13.71484375 157.87890625 C12.77022702 156.91923652 11.8249218 155.96024396 10.87890625 155.00195312 C8.56735203 152.65501797 6.26308035 150.30137234 3.96484375 147.94140625 C0.29705568 149.70641239 -2.84834233 151.87977458 -6.16015625 154.25390625 C-11.57050968 158.03986925 -16.89659115 161.43059466 -23.03515625 163.94140625 C-24.42927734 164.52921875 -24.42927734 164.52921875 -25.8515625 165.12890625 C-42.84682658 171.13459466 -63.73725528 169.95753616 -80.03125 162.5859375 C-92.42000875 156.31591442 -100.31744154 147.37466421 -105.47265625 134.44140625 C-109.15872216 122.17047687 -108.4205973 107.55178356 -103.03515625 95.94140625 C-100.98130043 92.33699096 -98.6856805 89.12881707 -96.03515625 85.94140625 C-95.52339844 85.3175 -95.01164062 84.69359375 -94.484375 84.05078125 C-90.07184467 79.18933344 -84.63212014 76.03362945 -79.0234375 72.73828125 C-76.55748254 71.2554848 -74.29122053 69.71990948 -72.03515625 67.94140625 C-72.4940625 67.26335937 -72.95296875 66.5853125 -73.42578125 65.88671875 C-83.03609812 51.30972551 -86.656661 36.87012427 -83.38671875 19.49609375 C-79.92013762 9.09635037 -71.95370916 -0.24529778 -62.36328125 -5.53125 C-57.07158176 -8.03822918 -51.81951807 -10.09453345 -46.03515625 -11.05859375 C-45.25140625 -11.19265625 -44.46765625 -11.32671875 -43.66015625 -11.46484375 C-28.15710691 -13.49500497 -12.13195146 -10.15749281 0 0 Z M-48.15625 17.75 C-53.470352 23.5944074 -55.5508905 28.35137172 -55.33984375 36.265625 C-54.28397969 45.53827732 -49.0219859 52.11177049 -43.03515625 58.94140625 C-33.82964877 57.76709664 -25.90276635 52.91849043 -19.63671875 46.13671875 C-16.30272888 41.56671313 -14.88004927 36.94605004 -15.171875 31.29296875 C-16.02563356 26.07642561 -17.4890299 21.96673886 -21.03515625 17.94140625 C-29.34090968 12.03154323 -39.94193133 10.74589403 -48.15625 17.75 Z M-67.91015625 98.31640625 C-73.10227296 103.88813527 -76.13690983 110.25174321 -76.03515625 117.94140625 C-75.46157751 124.8853701 -72.93469854 129.99869618 -68.03515625 134.94140625 C-59.46440964 141.66824721 -50.73106485 142.85985927 -40.03515625 141.94140625 C-30.66746919 139.88298028 -20.68191152 134.80943557 -15.03515625 126.94140625 C-20.42515259 121.52615048 -25.81899038 116.11474371 -31.21557617 110.70605469 C-33.05273705 108.86385069 -34.88900138 107.02075216 -36.72436523 105.17675781 C-39.35558221 102.53347429 -41.98995809 99.89337606 -44.625 97.25390625 C-45.45104233 96.42270264 -46.27708466 95.59149902 -47.12815857 94.73510742 C-47.88887161 93.97431885 -48.64958466 93.21353027 -49.43334961 92.4296875 C-50.10619492 91.75462158 -50.77904022 91.07955566 -51.47227478 90.3840332 C-55.66599885 86.51299148 -64.58598915 95.17290041 -67.91015625 98.31640625 Z " fill="#BB5A77" transform="translate(1355.03515625,885.05859375)"/>
<path d="M0 0 C1.63919647 1.74303697 3.17874153 3.52078099 4.67578125 5.38671875 C6.02750978 7.03351486 7.47213427 8.51693971 9 10 C9.27070312 9.40832031 9.54140625 8.81664062 9.8203125 8.20703125 C14.69423358 -0.91139726 25.46470496 -6.69683098 34.9375 -9.875 C48.40950597 -13.33431892 64.71542099 -13.18113322 77 -6 C88.08728401 2.40093766 94.8223757 12.09144117 97 26 C97.14043911 29.12704449 97.1263164 32.25041327 97.11352539 35.38012695 C97.11367142 36.31719986 97.11381744 37.25427277 97.1139679 38.21974182 C97.11327264 41.30927872 97.10549832 44.39875492 97.09765625 47.48828125 C97.0957907 49.63347847 97.09436744 51.77867611 97.09336853 53.9238739 C97.08955417 59.56435324 97.07973309 65.20480674 97.06866455 70.84527588 C97.0584272 76.60322724 97.05386593 82.36118278 97.04882812 88.11914062 C97.03810987 99.41277358 97.0205218 110.7063806 97 122 C87.1 122 77.2 122 67 122 C66.98018066 119.76057617 66.96036133 117.52115234 66.93994141 115.21386719 C66.87271581 107.77389406 66.79508311 100.33405491 66.71247292 92.89423752 C66.66275249 88.38818119 66.61642251 83.8821456 66.578125 79.37597656 C66.54096305 75.01865607 66.4945241 70.66152008 66.44193649 66.30435944 C66.42355526 64.65082318 66.40838887 62.99724762 66.39665604 61.34365082 C66.83857076 41.44332964 66.83857076 41.44332964 58.359375 24.25 C51.84918786 18.36252641 46.19373519 17.53201439 37.51171875 17.6953125 C30.53424777 18.3006993 25.95608331 20.65554005 21.125 25.6875 C14.39780408 34.08092268 13.91745358 44.40964021 13.79467773 54.79296875 C13.78477814 55.52565475 13.77487854 56.25834076 13.76467896 57.01322937 C13.73340981 59.40462147 13.70844533 61.79603336 13.68359375 64.1875 C13.66299424 65.85758951 13.64199704 67.52767416 13.62062073 69.19775391 C13.56570929 73.57061804 13.51616503 77.94352679 13.46777344 82.31646729 C13.41733103 86.78784098 13.36176426 91.25915075 13.30664062 95.73046875 C13.19943795 104.48692633 13.09838477 113.2434389 13 122 C3.1 122 -6.8 122 -17 122 C-17.029729 118.64086426 -17.029729 118.64086426 -17.06005859 115.21386719 C-17.12728419 107.77389406 -17.20491689 100.33405491 -17.28752708 92.89423752 C-17.33724751 88.38818119 -17.38357749 83.8821456 -17.421875 79.37597656 C-17.45903695 75.01865607 -17.5054759 70.66152008 -17.55806351 66.30435944 C-17.57644474 64.65082318 -17.59161113 62.99724762 -17.60334396 61.34365082 C-17.1879173 41.47378388 -17.1879173 41.47378388 -25.60546875 24.25 C-31.89888841 18.47061241 -38.28355426 17.47745812 -46.671875 17.62109375 C-53.30256515 18.37599627 -58.06013661 21.18664944 -62.875 25.6875 C-68.79659016 34.91821407 -70.07764107 43.99478743 -70.20532227 54.79296875 C-70.22017166 55.89199776 -70.22017166 55.89199776 -70.23532104 57.01322937 C-70.26659019 59.40462147 -70.29155467 61.79603336 -70.31640625 64.1875 C-70.33700576 65.85758951 -70.35800296 67.52767416 -70.37937927 69.19775391 C-70.43429071 73.57061804 -70.48383497 77.94352679 -70.53222656 82.31646729 C-70.58266897 86.78784098 -70.63823574 91.25915075 -70.69335938 95.73046875 C-70.80056205 104.48692633 -70.90161523 113.2434389 -71 122 C-80.9 122 -90.8 122 -101 122 C-101 78.77 -101 35.54 -101 -9 C-91.1 -9 -81.2 -9 -71 -9 C-70.505 -0.585 -70.505 -0.585 -70 8 C-69.05125 6.824375 -68.1025 5.64875 -67.125 4.4375 C-58.7389535 -5.07678971 -47.57167758 -11.20005777 -34.80078125 -12.03515625 C-21.32077953 -11.86595121 -10.13442204 -9.02262891 0 0 Z " fill="#BB5A77" transform="translate(642,928)"/>
<path d="M0 0 C42.57 0 85.14 0 129 0 C129 9.57 129 19.14 129 29 C96.66 29 64.32 29 31 29 C31 43.52 31 58.04 31 73 C59.71 73 88.42 73 118 73 C118 82.24 118 91.48 118 101 C89.29 101 60.58 101 31 101 C31 115.85 31 130.7 31 146 C63.67 146 96.34 146 130 146 C130 155.57 130 165.14 130 175 C87.1 175 44.2 175 0 175 C0 117.25 0 59.5 0 0 Z " fill="#BB5A77" transform="translate(2626,876)"/>
<path d="M0 0 C0.59167969 0.41507813 1.18335937 0.83015625 1.79296875 1.2578125 C14.66172444 11.09342898 21.64930087 28.28889497 23.77294922 43.83984375 C26.01347876 65.15619358 22.55814618 86.39286638 8.94824219 103.51245117 C0.01072983 114.1981039 -12.13328277 121.67424354 -26 124 C-29.63000127 124.2906796 -33.23473222 124.32501811 -36.875 124.3125 C-37.80441406 124.32861328 -38.73382812 124.34472656 -39.69140625 124.36132812 C-53.44817463 124.37092141 -65.19934565 118.86669227 -75.34375 109.7109375 C-77 108 -77 108 -80 104 C-80.33 122.81 -80.66 141.62 -81 161 C-90.9 161 -100.8 161 -111 161 C-111 104.9 -111 48.8 -111 -9 C-101.1 -9 -91.2 -9 -81 -9 C-80.67 -3.06 -80.34 2.88 -80 9 C-78.88625 7.659375 -77.7725 6.31875 -76.625 4.9375 C-67.15710378 -5.66387676 -55.87764792 -11.11400281 -41.84765625 -12.80859375 C-26.17966782 -13.58801652 -12.59461544 -9.43984769 0 0 Z M-72.43359375 28.015625 C-80.98910992 38.85403451 -82.16245587 51.73730018 -81 65 C-79.02206283 75.57663408 -73.75893105 84.55210209 -65.0625 90.9375 C-56.95562628 96.13421393 -48.69698246 98.9690724 -38.9765625 97.5625 C-26.89277193 94.88397715 -19.02549212 88.83614581 -12.35546875 78.4453125 C-6.21662299 67.37062245 -5.88534631 54.04221722 -9 42 C-12.59090616 31.70185063 -18.77845547 23.00686652 -28.45703125 17.63671875 C-44.88295486 10.52312978 -60.35265222 15.34605291 -72.43359375 28.015625 Z " fill="#BB5A77" transform="translate(3033,929)"/>
<path d="M0 0 C99.13043478 0 99.13043478 0 118.7109375 18.5859375 C131.62265164 32.20272818 133.50229902 46.94379682 133.2734375 64.9453125 C132.80261041 80.05373426 126.619774 92.50302923 115.62109375 102.87109375 C100.62997958 115.04718499 82.54644367 119.20431134 63.59375 119.09765625 C62.30839355 119.09614563 62.30839355 119.09614563 60.99707031 119.09460449 C57.83136637 119.08941803 54.66568168 119.07545719 51.5 119.0625 C40.8575 119.0315625 40.8575 119.0315625 30 119 C30 137.15 30 155.3 30 174 C20.1 174 10.2 174 0 174 C0 116.58 0 59.16 0 0 Z M30 29 C30 49.46 30 69.92 30 91 C35.8575 91.04125 41.715 91.0825 47.75 91.125 C49.57241211 91.14320801 51.39482422 91.16141602 53.27246094 91.18017578 C67.66783002 91.26594587 81.51062187 90.81377623 93.16796875 81.21484375 C98.70106997 75.4693847 102.10709806 67.8337993 102.375 59.8125 C101.38268191 49.72393271 98.26825713 42.1623821 90.34765625 35.57421875 C81.60840586 29.7141224 71.65789092 28.841205 61.4453125 28.90234375 C60.64536865 28.90335083 59.8454248 28.90435791 59.02124023 28.90539551 C56.05581207 28.91059604 53.09040448 28.92455714 50.125 28.9375 C43.48375 28.958125 36.8425 28.97875 30 29 Z " fill="#BB5A77" transform="translate(0,876)"/>
<path d="M0 0 C9.9 0 19.8 0 30 0 C30.33 22.11 30.66 44.22 31 67 C34.63 63.37 38.26 59.74 42 56 C45.13802873 53.96452191 47.65087939 52.42413056 51 51 C51.70511719 50.69578125 52.41023438 50.3915625 53.13671875 50.078125 C65.89843898 45.22088139 81.22254146 46.12993238 93.62890625 51.69140625 C104.67095977 57.78545556 111.86611137 66.85806696 115.4921875 78.9296875 C115.65976562 79.61289062 115.82734375 80.29609375 116 81 C116.17313217 81.67612839 116.34626434 82.35225677 116.52464294 83.0488739 C117.18369656 87.14043053 117.13061736 91.15070794 117.11352539 95.28833008 C117.11367142 96.21564941 117.11381744 97.14296875 117.1139679 98.09838867 C117.11327269 101.15546021 117.10549864 104.21247039 117.09765625 107.26953125 C117.09579068 109.39230821 117.09436743 111.51508561 117.09336853 113.63786316 C117.08955433 119.21915887 117.07973339 124.80042846 117.06866455 130.38171387 C117.05842686 136.07934211 117.05386586 141.77697458 117.04882812 147.47460938 C117.03811015 158.64975289 117.0205222 169.82487019 117 181 C107.1 181 97.2 181 87 181 C86.970271 177.64086426 86.970271 177.64086426 86.93994141 174.21386719 C86.87271581 166.77389406 86.79508311 159.33405491 86.71247292 151.89423752 C86.66275249 147.38818119 86.61642251 142.8821456 86.578125 138.37597656 C86.54096305 134.01865607 86.4945241 129.66152008 86.44193649 125.30435944 C86.42355526 123.65082318 86.40838887 121.99724762 86.39665604 120.34365082 C86.58512398 100.42781109 86.58512398 100.42781109 78 83 C70.16273373 76.458897 61.93011674 76.21432043 52 77 C43.51287717 79.22454501 38.40452169 84.55787715 34 92 C31.11787111 98.97778572 30.88289889 106.33197973 30.79467773 113.79296875 C30.77982834 114.89199776 30.77982834 114.89199776 30.76467896 116.01322937 C30.73340981 118.40462147 30.70844533 120.79603336 30.68359375 123.1875 C30.66299424 124.85758951 30.64199704 126.52767416 30.62062073 128.19775391 C30.56570929 132.57061804 30.51616503 136.94352679 30.46777344 141.31646729 C30.41733103 145.78784098 30.36176426 150.25915075 30.30664062 154.73046875 C30.19943795 163.48692633 30.09838477 172.2434389 30 181 C20.1 181 10.2 181 0 181 C0 121.27 0 61.54 0 0 Z " fill="#BB5A77" transform="translate(156,869)"/>
<path d="M0 0 C16.96071298 17.94236196 18.75 39.2958497 18.75 63.4375 C-12.93 63.4375 -44.61 63.4375 -77.25 63.4375 C-73.38577351 75.03017948 -70.19247127 83.96926792 -59.6171875 90.25390625 C-49.09682056 95.51408972 -37.87241019 95.99126979 -26.5625 92.875 C-19.80233583 90.55817507 -12.48019866 87.13031505 -7.6953125 81.66015625 C-6.25 80.4375 -6.25 80.4375 -4.40234375 80.453125 C-1.33931887 81.85400026 0.73497226 83.88804265 3.1875 86.1875 C4.11433594 87.04859375 5.04117188 87.9096875 5.99609375 88.796875 C8.61777593 91.31071494 11.19350942 93.85781078 13.75 96.4375 C3.81247776 109.68752965 -11.15739496 117.50613782 -27.25 120.4375 C-31.53179679 120.84363518 -35.76345296 120.91571128 -40.0625 120.875 C-41.76925903 120.86255249 -41.76925903 120.86255249 -43.51049805 120.84985352 C-60.9850356 120.50003909 -76.19121947 115.09285957 -88.97265625 102.80859375 C-103.56969124 87.61065166 -108.79211988 70.88028342 -108.66967773 50.1003418 C-108.16027747 30.03390249 -100.75195633 13.25967713 -86.25 -0.5625 C-62.64019479 -22.49174616 -23.41027572 -21.73301511 0 0 Z M-68.25 20.4375 C-73.87612355 27.41593443 -77.25 34.41291912 -77.25 43.4375 C-55.47 43.4375 -33.69 43.4375 -11.25 43.4375 C-13.52617438 32.05662808 -16.62621549 21.66038229 -26.25 14.4375 C-40.57381114 5.67659487 -56.90431048 8.06703853 -68.25 20.4375 Z " fill="#BB5A77" transform="translate(3184.25,932.5625)"/>
<path d="M0 0 C16.96071298 17.94236196 18.75 39.2958497 18.75 63.4375 C-12.93 63.4375 -44.61 63.4375 -77.25 63.4375 C-73.38577351 75.03017948 -70.19247127 83.96926792 -59.6171875 90.25390625 C-49.09682056 95.51408972 -37.87241019 95.99126979 -26.5625 92.875 C-19.80233583 90.55817507 -12.48019866 87.13031505 -7.6953125 81.66015625 C-6.25 80.4375 -6.25 80.4375 -4.40234375 80.453125 C-1.33931887 81.85400026 0.73497226 83.88804265 3.1875 86.1875 C4.11433594 87.04859375 5.04117188 87.9096875 5.99609375 88.796875 C8.61777593 91.31071494 11.19350942 93.85781078 13.75 96.4375 C3.81247776 109.68752965 -11.15739496 117.50613782 -27.25 120.4375 C-31.53179679 120.84363518 -35.76345296 120.91571128 -40.0625 120.875 C-41.76925903 120.86255249 -41.76925903 120.86255249 -43.51049805 120.84985352 C-60.9850356 120.50003909 -76.19121947 115.09285957 -88.97265625 102.80859375 C-103.56969124 87.61065166 -108.79211988 70.88028342 -108.66967773 50.1003418 C-108.16027747 30.03390249 -100.75195633 13.25967713 -86.25 -0.5625 C-62.64019479 -22.49174616 -23.41027572 -21.73301511 0 0 Z M-68.25 20.4375 C-73.87612355 27.41593443 -77.25 34.41291912 -77.25 43.4375 C-55.47 43.4375 -33.69 43.4375 -11.25 43.4375 C-13.52617438 32.05662808 -16.62621549 21.66038229 -26.25 14.4375 C-40.57381114 5.67659487 -56.90431048 8.06703853 -68.25 20.4375 Z " fill="#BB5A77" transform="translate(2274.25,932.5625)"/>
<path d="M0 0 C16.96071298 17.94236196 18.75 39.2958497 18.75 63.4375 C-12.93 63.4375 -44.61 63.4375 -77.25 63.4375 C-73.38577351 75.03017948 -70.19247127 83.96926792 -59.6171875 90.25390625 C-49.09682056 95.51408972 -37.87241019 95.99126979 -26.5625 92.875 C-19.80233583 90.55817507 -12.48019866 87.13031505 -7.6953125 81.66015625 C-6.25 80.4375 -6.25 80.4375 -4.40234375 80.453125 C-1.33931887 81.85400026 0.73497226 83.88804265 3.1875 86.1875 C4.11433594 87.04859375 5.04117187 87.9096875 5.99609375 88.796875 C8.61777593 91.31071494 11.19350942 93.85781078 13.75 96.4375 C3.81247776 109.68752965 -11.15739496 117.50613782 -27.25 120.4375 C-31.53179679 120.84363518 -35.76345296 120.91571128 -40.0625 120.875 C-41.76925903 120.86255249 -41.76925903 120.86255249 -43.51049805 120.84985352 C-60.9850356 120.50003909 -76.19121947 115.09285957 -88.97265625 102.80859375 C-103.56969124 87.61065166 -108.79211988 70.88028342 -108.66967773 50.1003418 C-108.16027747 30.03390249 -100.75195633 13.25967713 -86.25 -0.5625 C-62.64019479 -22.49174616 -23.41027572 -21.73301511 0 0 Z M-68.25 20.4375 C-73.87612355 27.41593443 -77.25 34.41291912 -77.25 43.4375 C-55.47 43.4375 -33.69 43.4375 -11.25 43.4375 C-13.52617438 32.05662808 -16.62621549 21.66038229 -26.25 14.4375 C-40.57381114 5.67659487 -56.90431048 8.06703853 -68.25 20.4375 Z " fill="#BB5A77" transform="translate(1850.25,932.5625)"/>
<path d="M0 0 C12.49458675 13.36685036 12.64953667 30.31686779 12.4609375 47.48828125 C12.45346036 49.50850866 12.44777441 51.52874341 12.44378662 53.54898071 C12.42864619 58.81962754 12.38946669 64.08982071 12.3449707 69.36029053 C12.30376544 74.75705838 12.2857221 80.15390083 12.265625 85.55078125 C12.22295914 96.10569829 12.15270658 106.66016201 12.0703125 117.21484375 C2.1703125 117.21484375 -7.7296875 117.21484375 -17.9296875 117.21484375 C-18.4246875 111.27484375 -18.4246875 111.27484375 -18.9296875 105.21484375 C-20.3528125 106.43171875 -21.7759375 107.64859375 -23.2421875 108.90234375 C-37.53601671 120.32527657 -53.28822445 121.48882556 -70.9296875 120.21484375 C-82.31883287 118.62672605 -92.83436895 112.23401733 -99.9296875 103.21484375 C-106.81903571 91.66715388 -107.75802593 78.92926841 -105.28125 65.76953125 C-101.58054757 54.66742397 -94.2510471 47.42286923 -83.9296875 42.21484375 C-73.23482774 37.91861803 -63.68848846 36.94924315 -52.2421875 36.90234375 C-51.54970917 36.898396 -50.85723083 36.89444824 -50.14376831 36.89038086 C-38.98852958 36.86062277 -28.62978082 37.92702358 -17.9296875 41.21484375 C-19.43119343 27.90177819 -19.43119343 27.90177819 -27.7421875 17.90234375 C-38.52511568 10.47673753 -53.28837255 11.47116193 -65.66894531 13.71826172 C-72.90776339 15.30830016 -79.93403065 17.79677975 -86.9296875 20.21484375 C-89.17811622 14.80904703 -91.29525463 9.36180667 -93.2421875 3.83984375 C-93.58894531 2.86273437 -93.93570313 1.885625 -94.29296875 0.87890625 C-95.32048946 -3.42029083 -95.32048946 -3.42029083 -93.9296875 -5.78515625 C-91.35173086 -7.03739409 -89.01078898 -7.97276447 -86.3046875 -8.84765625 C-85.53777588 -9.10442139 -84.77086426 -9.36118652 -83.98071289 -9.62573242 C-56.92256847 -18.41258369 -22.18431317 -20.75431389 0 0 Z M-69.9296875 63.21484375 C-74.19300675 67.58474598 -76.21650253 71.47682135 -76.2421875 77.58984375 C-76.08801802 84.03926706 -74.5122204 87.91068458 -69.8671875 92.40234375 C-64.03018624 97.08423318 -56.74518123 98.80954719 -49.33984375 98.49609375 C-38.58229528 97.24075584 -28.35149472 93.95905915 -21.4296875 85.21484375 C-17.63171037 79.91534078 -16.67318392 74.78351896 -16.8046875 68.33984375 C-16.82273437 67.18742188 -16.84078125 66.035 -16.859375 64.84765625 C-16.88257813 63.97882813 -16.90578125 63.11 -16.9296875 62.21484375 C-33.10136065 54.6451244 -54.57846074 52.92153563 -69.9296875 63.21484375 Z " fill="#BB5A77" transform="translate(867.9296875,932.78515625)"/>
<path d="M0 0 C12.49458675 13.36685036 12.64953667 30.31686779 12.4609375 47.48828125 C12.45346036 49.50850866 12.44777441 51.52874341 12.44378662 53.54898071 C12.42864619 58.81962754 12.38946669 64.08982071 12.3449707 69.36029053 C12.30376544 74.75705838 12.2857221 80.15390083 12.265625 85.55078125 C12.22295914 96.10569829 12.15270658 106.66016201 12.0703125 117.21484375 C2.1703125 117.21484375 -7.7296875 117.21484375 -17.9296875 117.21484375 C-18.4246875 111.27484375 -18.4246875 111.27484375 -18.9296875 105.21484375 C-20.3528125 106.43171875 -21.7759375 107.64859375 -23.2421875 108.90234375 C-37.53601671 120.32527657 -53.28822445 121.48882556 -70.9296875 120.21484375 C-82.31883287 118.62672605 -92.83436895 112.23401733 -99.9296875 103.21484375 C-106.81903571 91.66715388 -107.75802593 78.92926841 -105.28125 65.76953125 C-101.58054757 54.66742397 -94.2510471 47.42286923 -83.9296875 42.21484375 C-73.23482774 37.91861803 -63.68848846 36.94924315 -52.2421875 36.90234375 C-51.54970917 36.898396 -50.85723083 36.89444824 -50.14376831 36.89038086 C-38.98852958 36.86062277 -28.62978082 37.92702358 -17.9296875 41.21484375 C-19.43119343 27.90177819 -19.43119343 27.90177819 -27.7421875 17.90234375 C-38.52511568 10.47673753 -53.28837255 11.47116193 -65.66894531 13.71826172 C-72.90776339 15.30830016 -79.93403065 17.79677975 -86.9296875 20.21484375 C-89.17811622 14.80904703 -91.29525463 9.36180667 -93.2421875 3.83984375 C-93.58894531 2.86273437 -93.93570312 1.885625 -94.29296875 0.87890625 C-95.32048946 -3.42029083 -95.32048946 -3.42029083 -93.9296875 -5.78515625 C-91.35173086 -7.03739409 -89.01078898 -7.97276447 -86.3046875 -8.84765625 C-85.53777588 -9.10442139 -84.77086426 -9.36118652 -83.98071289 -9.62573242 C-56.92256847 -18.41258369 -22.18431317 -20.75431389 0 0 Z M-69.9296875 63.21484375 C-74.19300675 67.58474598 -76.21650253 71.47682135 -76.2421875 77.58984375 C-76.08801802 84.03926706 -74.5122204 87.91068458 -69.8671875 92.40234375 C-64.03018624 97.08423318 -56.74518123 98.80954719 -49.33984375 98.49609375 C-38.58229528 97.24075584 -28.35149472 93.95905915 -21.4296875 85.21484375 C-17.63171037 79.91534078 -16.67318392 74.78351896 -16.8046875 68.33984375 C-16.82273437 67.18742188 -16.84078125 66.035 -16.859375 64.84765625 C-16.88257813 63.97882813 -16.90578125 63.11 -16.9296875 62.21484375 C-33.10136065 54.6451244 -54.57846074 52.92153563 -69.9296875 63.21484375 Z " fill="#BB5A77" transform="translate(400.9296875,932.78515625)"/>
<path d="M0 0 C10.89 0 21.78 0 33 0 C36.19674269 7.67218245 39.32379493 15.32085126 42.2578125 23.08984375 C42.64324722 24.10550415 43.02868195 25.12116455 43.42579651 26.16760254 C44.66085249 29.42348559 45.89310735 32.6804189 47.125 35.9375 C48.3995288 39.30307698 49.67442347 42.66851522 50.94932556 46.03395081 C51.78965205 48.25246665 52.62971159 50.47108362 53.46949768 52.68980408 C55.8617029 59.00740288 58.26751267 65.31949677 60.69140625 71.625 C61.21413976 72.98832053 61.73676889 74.35168109 62.25927734 75.71508789 C63.18676192 78.13241394 64.11787029 80.54835387 65.05322266 82.96264648 C65.45202637 84.00493408 65.85083008 85.04722168 66.26171875 86.12109375 C66.60162842 87.0020874 66.94153809 87.88308105 67.29174805 88.79077148 C68 91 68 91 68 94 C68.66 94 69.32 94 70 94 C70.16523918 93.17875893 70.16523918 93.17875893 70.33381653 92.34092712 C71.50056582 86.79507168 73.05415797 81.52794826 74.94921875 76.19140625 C75.38388458 74.94819611 75.38388458 74.94819611 75.82733154 73.67987061 C76.77563109 70.972263 77.73139605 68.26736054 78.6875 65.5625 C79.3513191 63.67288477 80.01480682 61.78315309 80.67797852 59.89331055 C87.70402417 39.90008001 94.84350246 19.94683357 102 0 C112.56 0 123.12 0 134 0 C132.87507796 6.74953225 132.87507796 6.74953225 131.49145508 10.2746582 C131.18129959 11.07343384 130.8711441 11.87220947 130.55158997 12.69519043 C130.21101059 13.5550354 129.87043121 14.41488037 129.51953125 15.30078125 C129.15901169 16.22499878 128.79849213 17.14921631 128.42704773 18.10144043 C127.22738566 21.17384984 126.01983539 24.24309873 124.8125 27.3125 C123.52550423 30.60344025 122.24058929 33.89518865 120.95565796 37.18693542 C120.05092837 39.50410819 119.14549771 41.82100734 118.2394104 44.13764954 C114.88031782 52.72886577 111.54758406 61.33001628 108.23046875 69.9375 C107.99091776 70.55900625 107.75136677 71.1805125 107.50455666 71.82085228 C105.38510606 77.32012891 103.26715084 82.81998124 101.14956665 88.31997681 C96.39160712 100.67463783 91.61780817 113.02300185 86.78897095 125.35014915 C86.08827354 127.13947152 85.38908311 128.92938378 84.68994141 130.71931458 C73.12998262 160.16679564 73.12998262 160.16679564 59.3125 168.0625 C46.61637703 173.48109454 31.30719639 173.0891971 18.328125 168.78125 C15.49130178 167.61394475 12.73799673 166.38102823 10 165 C9.34 164.67 8.68 164.34 8 164 C8.59084404 160.47944083 9.5155542 157.56638778 11.06640625 154.35546875 C11.46923828 153.51435547 11.87207031 152.67324219 12.28710938 151.80664062 C12.91842773 150.51016602 12.91842773 150.51016602 13.5625 149.1875 C13.98724609 148.30384766 14.41199219 147.42019531 14.84960938 146.50976562 C15.89471424 144.33735663 16.94496762 142.16760043 18 140 C18.73863281 140.28875 19.47726562 140.5775 20.23828125 140.875 C27.79516643 143.64041669 35.11283898 145.78061581 43.06640625 143.375 C47.17563916 141.38694779 50.04417101 138.2846878 52.22836304 134.29919434 C53.16362487 131.51245807 52.86126255 130.47021727 51.83056641 127.75585938 C51.53804993 126.96888672 51.24553345 126.18191406 50.94415283 125.37109375 C50.6325824 124.58863281 50.32101196 123.80617188 50 123 C49.7298407 122.30777344 49.4596814 121.61554688 49.18133545 120.90234375 C48.33847665 118.78959457 47.4665442 116.6910332 46.5859375 114.59375 C46.25928604 113.80845917 45.93263458 113.02316833 45.59608459 112.21408081 C44.525263 109.64151274 43.45009024 107.07078673 42.375 104.5 C41.61432168 102.67413376 40.85399288 100.84812187 40.09399414 99.02197266 C38.5157241 95.23053407 36.93596029 91.43972349 35.35498047 87.64941406 C29.24081651 72.98734452 23.16246683 58.31032022 17.08886719 43.63140869 C16.34622021 41.83669237 15.60337322 40.0420588 14.86035156 38.24749756 C12.57566394 32.72901138 10.29486152 27.20894829 8.01956177 21.68658447 C7.30241055 19.94743665 6.58406111 18.2087824 5.86447144 16.47064209 C4.87376073 14.07683861 3.88747436 11.68126045 2.90234375 9.28515625 C2.60638306 8.57268234 2.31042236 7.86020844 2.00549316 7.12614441 C0 2.22840198 0 2.22840198 0 0 Z " fill="#BB5A77" transform="translate(1034,920)"/>
<path d="M0 0 C6.2092509 6.23008732 10.24054799 13.8250466 12.328125 22.3359375 C12.50125717 23.01206589 12.67438934 23.68819427 12.85276794 24.3848114 C13.51182156 28.47636803 13.45874236 32.48664544 13.44165039 36.62426758 C13.44179642 37.55158691 13.44194244 38.47890625 13.4420929 39.43432617 C13.44139769 42.49139771 13.43362364 45.54840789 13.42578125 48.60546875 C13.42391568 50.72824571 13.42249243 52.85102311 13.42149353 54.97380066 C13.41767933 60.55509637 13.40785839 66.13636596 13.39678955 71.71765137 C13.38655186 77.41527961 13.38199086 83.11291208 13.37695312 88.81054688 C13.36623515 99.98569039 13.3486472 111.16080769 13.328125 122.3359375 C3.428125 122.3359375 -6.471875 122.3359375 -16.671875 122.3359375 C-16.701604 118.97680176 -16.701604 118.97680176 -16.73193359 115.54980469 C-16.79915919 108.10983156 -16.87679189 100.66999241 -16.95940208 93.23017502 C-17.00912251 88.72411869 -17.05545249 84.2180831 -17.09375 79.71191406 C-17.13091195 75.35459357 -17.1773509 70.99745758 -17.22993851 66.64029694 C-17.24831974 64.98676068 -17.26348613 63.33318512 -17.27521896 61.67958832 C-17.08675102 41.76374859 -17.08675102 41.76374859 -25.671875 24.3359375 C-33.50914127 17.7948345 -41.74175826 17.55025793 -51.671875 18.3359375 C-60.15899783 20.56048251 -65.26735331 25.89381465 -69.671875 33.3359375 C-72.55400389 40.31372322 -72.78897611 47.66791723 -72.87719727 55.12890625 C-72.89204666 56.22793526 -72.89204666 56.22793526 -72.90719604 57.34916687 C-72.93846519 59.74055897 -72.96342967 62.13197086 -72.98828125 64.5234375 C-73.00888076 66.19352701 -73.02987796 67.86361166 -73.05125427 69.53369141 C-73.10616571 73.90655554 -73.15570997 78.27946429 -73.20410156 82.65240479 C-73.25454397 87.12377848 -73.31011074 91.59508825 -73.36523438 96.06640625 C-73.47243705 104.82286383 -73.57349023 113.5793764 -73.671875 122.3359375 C-83.571875 122.3359375 -93.471875 122.3359375 -103.671875 122.3359375 C-103.671875 79.1059375 -103.671875 35.8759375 -103.671875 -8.6640625 C-93.771875 -8.6640625 -83.871875 -8.6640625 -73.671875 -8.6640625 C-73.176875 -0.2490625 -73.176875 -0.2490625 -72.671875 8.3359375 C-71.0425 6.6240625 -69.413125 4.9121875 -67.734375 3.1484375 C-59.17538243 -5.55022117 -48.9067035 -10.7429092 -36.60546875 -11.6640625 C-22.84910376 -11.6640625 -10.67879907 -9.03332374 0 0 Z " fill="#BB5A77" transform="translate(2129.671875,927.6640625)"/>
<path d="M0 0 C8.59979667 -0.64494931 17.19098916 -1.05061705 25.81640625 -0.85546875 C26.90089554 -0.8609523 26.90089554 -0.8609523 28.0072937 -0.86654663 C33.07813316 -0.68090299 35.58231604 0.76293099 39.04234314 4.19648743 C40.87355715 6.52632947 41.87413807 9.0244618 42.97265625 11.75683594 C44.99390807 16.17015859 48.00742432 19.99576222 50.8125 23.9375 C51.88492725 25.50678502 52.95407841 27.07831519 54.01953125 28.65234375 C55.92491336 31.45589822 57.87937293 34.21014591 59.88671875 36.94140625 C62 40 62 40 62 42 C62.66 42 63.32 42 64 42 C64.24105469 41.30132813 64.48210938 40.60265625 64.73046875 39.8828125 C66.19952883 36.54691608 68.15384539 33.78351199 70.3125 30.875 C75.22089565 24.14195962 79.93816631 17.28980336 84.62036133 10.39794922 C85.14654053 9.62467285 85.67271973 8.85139648 86.21484375 8.0546875 C86.91275024 7.02577393 86.91275024 7.02577393 87.62475586 5.97607422 C88.30550171 4.99791748 88.30550171 4.99791748 89 4 C89.39751465 3.26442871 89.7950293 2.52885742 90.20458984 1.77099609 C92.49642192 -0.48967156 94.23158044 -0.45462227 97.3712616 -0.45318604 C98.07761246 -0.43254089 98.78396332 -0.41189575 99.51171875 -0.390625 C100.23994339 -0.38496521 100.96816803 -0.37930542 101.71846008 -0.37347412 C104.04214498 -0.35110029 106.36428207 -0.30090669 108.6875 -0.25 C110.26364959 -0.22993609 111.83982337 -0.21168512 113.41601562 -0.1953125 C117.27793924 -0.15123283 121.1387073 -0.08220225 125 0 C123.82250482 3.17658559 122.60159259 5.81515576 120.53125 8.49609375 C120.04793213 9.12950684 119.56461426 9.76291992 119.06665039 10.41552734 C118.29115845 11.41640381 118.29115845 11.41640381 117.5 12.4375 C116.40366356 13.87532367 115.30863138 15.31414269 114.21484375 16.75390625 C113.66940918 17.47078613 113.12397461 18.18766602 112.56201172 18.92626953 C110.34287059 21.87240657 108.19469561 24.86559346 106.0625 27.875 C102.17570267 33.35528097 98.25295434 38.80815283 94.3125 44.25 C89.81807427 50.46138266 85.35845771 56.69212303 81 63 C83.95560064 68.40796952 87.2921954 73.34840131 90.9375 78.3125 C92.10295802 79.91269237 93.26831992 81.51295475 94.43359375 83.11328125 C95.02640137 83.92490723 95.61920898 84.7365332 96.22998047 85.57275391 C99.00043046 89.37190064 101.74960947 93.18632065 104.5 97 C105.57021146 98.48184381 106.64052453 99.96361424 107.7109375 101.4453125 C110.00881463 104.62688198 112.30549502 107.80931182 114.6015625 110.9921875 C115.19130859 111.80945312 115.78105469 112.62671875 116.38867188 113.46875 C117.51787978 115.03363654 118.64680161 116.59872956 119.77539062 118.1640625 C120.54012695 119.22367188 120.54012695 119.22367188 121.3203125 120.3046875 C121.76648926 120.92327637 122.21266602 121.54186523 122.67236328 122.17919922 C123.64225157 123.5093623 124.6455716 124.81532952 125.66748047 126.10595703 C127 128 127 128 127 130 C98.45766073 133.63341257 98.45766073 133.63341257 89.99658203 128.00048828 C84.9882359 122.72647943 81.71128573 116.48391773 78.52587891 109.99316406 C76.31959757 105.6653226 73.58192844 101.80931209 70.75 97.875 C69.90938999 96.64463976 69.07069089 95.41297062 68.234375 94.1796875 C66.25184597 91.35839619 64.18987208 88.66200046 62 86 C61.33355469 86.969375 60.66710938 87.93875 59.98046875 88.9375 C59.54065674 89.57719727 59.10084473 90.21689453 58.64770508 90.87597656 C57.66175506 92.31014562 56.67591797 93.74439231 55.69018555 95.17871094 C53.16322828 98.85530371 50.63473215 102.53080924 48.1015625 106.203125 C47.39930542 107.22212891 47.39930542 107.22212891 46.68286133 108.26171875 C45.80842726 109.53045045 44.93333246 110.7987272 44.05737305 112.06640625 C43.64269775 112.66839844 43.22802246 113.27039062 42.80078125 113.890625 C42.3536377 114.51098633 41.90649414 115.13134766 41.44580078 115.77050781 C39.87670035 118.08538601 39.87670035 118.08538601 38.50341797 121.12792969 C36.61810424 124.71039575 35.000798 127.26670762 32 130 C26.09613851 131.48095588 20.52942259 131.14500544 14.5 130.75 C12.89863786 130.6897302 11.29705747 130.63499053 9.6953125 130.5859375 C5.79144068 130.45440543 1.89814011 130.24792476 -2 130 C2.1943545 122.52393083 2.1943545 122.52393083 4.59375 119.4140625 C5.06031006 118.80256348 5.52687012 118.19106445 6.00756836 117.56103516 C6.5000708 116.92214355 6.99257324 116.28325195 7.5 115.625 C11.75431533 110.0306244 15.9046097 104.38110136 19.9375 98.625 C25.25278365 91.04053632 30.65628542 83.52352102 36.08984375 76.0234375 C36.57308105 75.34635742 37.05631836 74.66927734 37.55419922 73.97167969 C38.5204492 72.65397708 39.523007 71.3621706 40.55908203 70.09863281 C42.20377024 68.11789388 42.20377024 68.11789388 44 65 C43.29288381 60.68460866 40.25152316 57.29163415 37.6875 53.8125 C37.25091064 53.21083008 36.81432129 52.60916016 36.36450195 51.98925781 C35.41435354 50.68029001 34.46203712 49.3728938 33.5078125 48.06689453 C31.43059619 45.21946686 29.37091064 42.35952663 27.31005859 39.50024414 C25.6696612 37.22526027 24.02657951 34.95223763 22.3828125 32.6796875 C20.08297786 29.49952058 17.78633999 26.31708085 15.4921875 23.1328125 C14.63040894 21.93736816 14.63040894 21.93736816 13.7512207 20.71777344 C12.66324662 19.20841977 11.5758029 17.69868359 10.48901367 16.18847656 C9.98861572 15.49463867 9.48821777 14.80080078 8.97265625 14.0859375 C8.48812988 13.41401367 8.00360352 12.74208984 7.50439453 12.04980469 C5.42071565 9.21069922 3.26542635 6.42752392 1.09936523 3.65087891 C0 2 0 2 0 0 Z " fill="#BB5A77" transform="translate(2774,920)"/>
<path d="M0 0 C0.99 0.99 0.99 0.99 2 2 C1.64425783 5.59819551 0.48699852 8.30768615 -1.28515625 11.42578125 C-1.95708008 12.61977539 -1.95708008 12.61977539 -2.64257812 13.83789062 C-3.11115234 14.65451172 -3.57972656 15.47113281 -4.0625 16.3125 C-4.53494141 17.14845703 -5.00738281 17.98441406 -5.49414062 18.84570312 C-6.65667756 20.90069265 -7.82542091 22.95187737 -9 25 C-9.53778076 24.74307373 -10.07556152 24.48614746 -10.62963867 24.22143555 C-32.08280811 13.45747367 -32.08280811 13.45747367 -55.3125 14.25 C-58.57086974 15.63902614 -60.86457914 17.09582763 -63 20 C-64.00604313 22.80254872 -64.08708408 24.51481725 -63.5625 27.4375 C-58.02647452 36.51658179 -46.68157392 38.88632485 -37.1875 42 C-4.40290688 52.82832707 -4.40290688 52.82832707 2.5 66.3125 C6.39171177 75.87962477 6.73072928 88.24531216 3.4375 98.125 C-1.29315504 108.73612206 -8.83161827 115.57129656 -19.53125 120.0625 C-41.53711041 127.69119828 -65.03931034 123.07083433 -85.44506836 113.43774414 C-90.33369826 111.03089698 -94.64701408 108.27774637 -99 105 C-98.52206433 99.85223454 -95.87429347 96.42832857 -93 92.3125 C-89.78164218 87.78760053 -89.78164218 87.78760053 -87 83 C-83.01380593 83.65951629 -80.09810676 85.65721707 -76.6875 87.75 C-64.85101044 94.77279472 -49.33464032 100.84237903 -35.4609375 97.36328125 C-33.27832588 96.63455913 -31.13994811 95.8446012 -29 95 C-28.01 94.67 -27.02 94.34 -26 94 C-23.78096538 90.02909595 -23.44968825 86.48110994 -24 82 C-30.03856392 71.21685015 -46.89971158 68.94096528 -58.01196289 65.52587891 C-71.01980724 61.50863033 -83.61783093 56.091567 -90.3125 43.5390625 C-94.35492896 33.96636614 -94.48849915 23.1025441 -91.03515625 13.3046875 C-85.66006184 1.33749616 -77.04698042 -5.36654599 -65 -10 C-43.24721633 -17.76885131 -19.4419474 -10.46874091 0 0 Z " fill="#BB5A77" transform="translate(3510,930)"/>
<path d="M0 0 C0.99 0.99 0.99 0.99 2 2 C1.64425783 5.59819551 0.48699852 8.30768615 -1.28515625 11.42578125 C-1.95708008 12.61977539 -1.95708008 12.61977539 -2.64257812 13.83789062 C-3.11115234 14.65451172 -3.57972656 15.47113281 -4.0625 16.3125 C-4.53494141 17.14845703 -5.00738281 17.98441406 -5.49414062 18.84570312 C-6.65667756 20.90069265 -7.82542091 22.95187737 -9 25 C-9.53778076 24.74307373 -10.07556152 24.48614746 -10.62963867 24.22143555 C-32.08280811 13.45747367 -32.08280811 13.45747367 -55.3125 14.25 C-58.57086974 15.63902614 -60.86457914 17.09582763 -63 20 C-64.00604313 22.80254872 -64.08708408 24.51481725 -63.5625 27.4375 C-58.02647452 36.51658179 -46.68157392 38.88632485 -37.1875 42 C-4.40290688 52.82832707 -4.40290688 52.82832707 2.5 66.3125 C6.39171177 75.87962477 6.73072928 88.24531216 3.4375 98.125 C-1.29315504 108.73612206 -8.83161827 115.57129656 -19.53125 120.0625 C-41.53711041 127.69119828 -65.03931034 123.07083433 -85.44506836 113.43774414 C-90.33369826 111.03089698 -94.64701408 108.27774637 -99 105 C-98.52206433 99.85223454 -95.87429347 96.42832857 -93 92.3125 C-89.78164218 87.78760053 -89.78164218 87.78760053 -87 83 C-83.01380593 83.65951629 -80.09810676 85.65721707 -76.6875 87.75 C-64.85101044 94.77279472 -49.33464032 100.84237903 -35.4609375 97.36328125 C-33.27832588 96.63455913 -31.13994811 95.8446012 -29 95 C-28.01 94.67 -27.02 94.34 -26 94 C-23.78096538 90.02909595 -23.44968825 86.48110994 -24 82 C-30.03856392 71.21685015 -46.89971158 68.94096528 -58.01196289 65.52587891 C-71.01980724 61.50863033 -83.61783093 56.091567 -90.3125 43.5390625 C-94.35492896 33.96636614 -94.48849915 23.1025441 -91.03515625 13.3046875 C-85.66006184 1.33749616 -77.04698042 -5.36654599 -65 -10 C-43.24721633 -17.76885131 -19.4419474 -10.46874091 0 0 Z " fill="#BB5A77" transform="translate(2523,930)"/>
<path d="M0 0 C0.99 0.99 0.99 0.99 2 2 C1.64425783 5.59819551 0.48699852 8.30768615 -1.28515625 11.42578125 C-1.95708008 12.61977539 -1.95708008 12.61977539 -2.64257812 13.83789062 C-3.11115234 14.65451172 -3.57972656 15.47113281 -4.0625 16.3125 C-4.53494141 17.14845703 -5.00738281 17.98441406 -5.49414062 18.84570312 C-6.65667756 20.90069265 -7.82542091 22.95187737 -9 25 C-9.53778076 24.74307373 -10.07556152 24.48614746 -10.62963867 24.22143555 C-32.08280811 13.45747367 -32.08280811 13.45747367 -55.3125 14.25 C-58.57086974 15.63902614 -60.86457914 17.09582763 -63 20 C-64.00604313 22.80254872 -64.08708408 24.51481725 -63.5625 27.4375 C-58.02647452 36.51658179 -46.68157392 38.88632485 -37.1875 42 C-4.40290688 52.82832707 -4.40290688 52.82832707 2.5 66.3125 C6.39171177 75.87962477 6.73072928 88.24531216 3.4375 98.125 C-1.29315504 108.73612206 -8.83161827 115.57129656 -19.53125 120.0625 C-41.53711041 127.69119828 -65.03931034 123.07083433 -85.44506836 113.43774414 C-90.33369826 111.03089698 -94.64701408 108.27774637 -99 105 C-98.52206433 99.85223454 -95.87429347 96.42832857 -93 92.3125 C-89.78164218 87.78760053 -89.78164218 87.78760053 -87 83 C-83.01380593 83.65951629 -80.09810676 85.65721707 -76.6875 87.75 C-64.85101044 94.77279472 -49.33464032 100.84237903 -35.4609375 97.36328125 C-33.27832588 96.63455913 -31.13994811 95.8446012 -29 95 C-28.01 94.67 -27.02 94.34 -26 94 C-23.78096538 90.02909595 -23.44968825 86.48110994 -24 82 C-30.03856392 71.21685015 -46.89971158 68.94096528 -58.01196289 65.52587891 C-71.01980724 61.50863033 -83.61783093 56.091567 -90.3125 43.5390625 C-94.35492896 33.96636614 -94.48849915 23.1025441 -91.03515625 13.3046875 C-85.66006184 1.33749616 -77.04698042 -5.36654599 -65 -10 C-43.24721633 -17.76885131 -19.4419474 -10.46874091 0 0 Z " fill="#BB5A77" transform="translate(2407,930)"/>
<path d="M0 0 C2.04811734 2.29391657 4.0355624 4.63421244 6 7 C3.39660435 9.77155864 0.79214986 12.54212006 -1.8125 15.3125 C-2.55048828 16.09818359 -3.28847656 16.88386719 -4.04882812 17.69335938 C-5.11713867 18.8293457 -5.11713867 18.8293457 -6.20703125 19.98828125 C-6.8616333 20.68477783 -7.51623535 21.38127441 -8.19067383 22.09887695 C-9.77013708 23.75847489 -11.37128186 25.38891345 -13 27 C-16.07734984 25.62400437 -18.20053841 24.01395144 -20.625 21.6875 C-29.47726044 13.74698923 -38.46969357 11.47826562 -50.109375 11.734375 C-60.8107962 12.46499412 -67.85453017 17.1955447 -75 25 C-82.22506882 34.07898336 -84.75175407 45.40181283 -83.75 56.859375 C-81.91440895 68.46293272 -77.80940606 77.05176985 -69 85 C-59.43166607 91.7198661 -49.46961468 93.09919539 -38 92 C-28.30924514 90.07161301 -19.7367041 84.11342769 -13 77 C-8.15690146 79.16779311 -4.91288991 82.68109226 -1.1875 86.375 C-0.48173828 87.04789063 0.22402344 87.72078125 0.95117188 88.4140625 C1.61310547 89.06890625 2.27503906 89.72375 2.95703125 90.3984375 C3.56522705 90.99317871 4.17342285 91.58791992 4.80004883 92.20068359 C6 94 6 94 5.77490234 96.11108398 C1.94413266 105.44903768 -11.46277506 112.68061004 -20.39453125 116.421875 C-36.97283488 122.0638131 -57.69348982 122.88065708 -74 116 C-75.01578125 115.59910156 -76.0315625 115.19820312 -77.078125 114.78515625 C-85.51975814 111.05135698 -91.58951365 105.46789369 -98 99 C-98.59554687 98.43796875 -99.19109375 97.8759375 -99.8046875 97.296875 C-103.49613015 93.50566363 -105.78954369 88.91710128 -108.1875 84.25 C-108.52104492 83.60651611 -108.85458984 82.96303223 -109.19824219 82.30004883 C-113.96536792 72.60617305 -115.49413299 63.30432419 -115.375 52.5625 C-115.38660156 51.52029297 -115.39820313 50.47808594 -115.41015625 49.40429688 C-115.33969564 30.46213635 -107.52761718 15.32430172 -94.83203125 1.66796875 C-70.12192467 -22.62823319 -25.39198215 -23.85730191 0 0 Z " fill="#BB5A77" transform="translate(1020,933)"/>
<path d="M0 0 C9.9 0 19.8 0 30 0 C30 11.55 30 23.1 30 35 C41.88 35 53.76 35 66 35 C66 43.91 66 52.82 66 62 C54.12 62 42.24 62 30 62 C30.12008413 73.17981655 30.12008413 73.17981655 30.2578125 84.359375 C30.31795408 88.92378484 30.37609666 93.48815493 30.421875 98.05273438 C30.45894264 101.7357388 30.50535849 105.41852095 30.55806351 109.10133362 C30.57649405 110.50138929 30.59164315 111.9014924 30.60334396 113.30162048 C30.27361694 125.47711353 30.27361694 125.47711353 34.8125 136.375 C39.87919423 140.13883 44.79342834 140.75604131 51 140 C55.75367794 138.84424321 60.31600643 137.4552213 65 136 C65 144.58 65 153.16 65 162 C55.32744339 166.83627831 48.80394591 168.3618732 38.25 168.375 C37.2290625 168.39949219 36.208125 168.42398437 35.15625 168.44921875 C25.98202235 168.48414601 16.9392558 166.35473288 9.5625 160.609375 C2.35885096 153.18961649 -0.32788037 143.998335 -0.22705078 133.86157227 C-0.22734283 133.08026443 -0.22763489 132.2989566 -0.22793579 131.49397278 C-0.22655248 128.93466738 -0.21103885 126.37566022 -0.1953125 123.81640625 C-0.19157881 122.03279276 -0.18873352 120.2491772 -0.18673706 118.46556091 C-0.17912863 113.78844464 -0.15950429 109.11145408 -0.1373291 104.43438721 C-0.11681037 99.65484314 -0.10772249 94.87527861 -0.09765625 90.09570312 C-0.0762556 80.73040485 -0.04109638 71.36523258 0 62 C-5.61 62 -11.22 62 -17 62 C-17 53.09 -17 44.18 -17 35 C-11.39 35 -5.78 35 0 35 C0 23.45 0 11.9 0 0 Z " fill="#BB5A77" transform="translate(3331,884)"/>
<path d="M0 0 C0 10.56 0 21.12 0 32 C-7.425 32.99 -7.425 32.99 -15 34 C-25.93391068 37.4327394 -33.61228704 42.95819549 -39.49609375 52.91015625 C-45.74882812 65.75668322 -46.09983232 79.44512713 -46.31640625 93.44921875 C-46.33718735 94.58784866 -46.35796844 95.72647858 -46.37937927 96.89961243 C-46.4441583 100.49552047 -46.50342259 104.09149423 -46.5625 107.6875 C-46.60575355 110.1425846 -46.64936988 112.59766285 -46.69335938 115.05273438 C-46.80043971 121.03509027 -46.90004361 127.01750398 -47 133 C-56.9 133 -66.8 133 -77 133 C-77 90.1 -77 47.2 -77 3 C-67.1 3 -57.2 3 -47 3 C-46.67 10.92 -46.34 18.84 -46 27 C-45.030625 25.370625 -44.06125 23.74125 -43.0625 22.0625 C-32.17263369 5.11786803 -20.01875362 0 0 0 Z " fill="#BB5A77" transform="translate(3305,917)"/>
<path d="M0 0 C0 10.56 0 21.12 0 32 C-7.425 32.99 -7.425 32.99 -15 34 C-25.93391068 37.4327394 -33.61228704 42.95819549 -39.49609375 52.91015625 C-45.74882812 65.75668322 -46.09983232 79.44512713 -46.31640625 93.44921875 C-46.33718735 94.58784866 -46.35796844 95.72647858 -46.37937927 96.89961243 C-46.4441583 100.49552047 -46.50342259 104.09149423 -46.5625 107.6875 C-46.60575355 110.1425846 -46.64936988 112.59766285 -46.69335938 115.05273438 C-46.80043971 121.03509027 -46.90004361 127.01750398 -47 133 C-56.9 133 -66.8 133 -77 133 C-77 90.1 -77 47.2 -77 3 C-67.1 3 -57.2 3 -47 3 C-46.67 10.92 -46.34 18.84 -46 27 C-45.030625 25.370625 -44.06125 23.74125 -43.0625 22.0625 C-32.17263369 5.11786803 -20.01875362 0 0 0 Z " fill="#BB5A77" transform="translate(521,917)"/>
<path d="M0 0 C9.9 0 19.8 0 30 0 C30 59.73 30 119.46 30 181 C20.1 181 10.2 181 0 181 C0 121.27 0 61.54 0 0 Z " fill="#BB5A77" transform="translate(1961,869)"/>
<path d="M0 0 C9.9 0 19.8 0 30 0 C30 59.73 30 119.46 30 181 C20.1 181 10.2 181 0 181 C0 121.27 0 61.54 0 0 Z " fill="#BB5A77" transform="translate(1895,869)"/>
</svg>
